<svg id="Layer_1" data-name="Layer 1" xmlns="http://www.w3.org/2000/svg" viewBox="0 0 726.3 750.11"><defs><style>.cls-1{opacity:0.95;}.cls-10,.cls-11,.cls-12,.cls-13,.cls-14,.cls-15,.cls-16,.cls-17,.cls-18,.cls-19,.cls-2,.cls-20,.cls-21,.cls-22,.cls-23,.cls-24,.cls-25,.cls-26,.cls-27,.cls-28,.cls-29,.cls-3,.cls-30,.cls-31,.cls-32,.cls-33,.cls-34,.cls-35,.cls-36,.cls-37,.cls-38,.cls-39,.cls-4,.cls-40,.cls-41,.cls-42,.cls-43,.cls-5,.cls-6,.cls-7,.cls-8,.cls-9{fill:none;stroke:#1ea3dc;stroke-miterlimit:10;stroke-width:0.75px;}.cls-3{opacity:0.98;}.cls-4{opacity:0.97;}.cls-5{opacity:0.95;}.cls-6{opacity:0.93;}.cls-7{opacity:0.91;}.cls-8{opacity:0.9;}.cls-9{opacity:0.88;}.cls-10{opacity:0.86;}.cls-11{opacity:0.85;}.cls-12{opacity:0.83;}.cls-13{opacity:0.81;}.cls-14{opacity:0.8;}.cls-15{opacity:0.78;}.cls-16{opacity:0.76;}.cls-17{opacity:0.74;}.cls-18{opacity:0.73;}.cls-19{opacity:0.71;}.cls-20{opacity:0.69;}.cls-21{opacity:0.68;}.cls-22{opacity:0.66;}.cls-23{opacity:0.64;}.cls-24{opacity:0.62;}.cls-25{opacity:0.61;}.cls-26{opacity:0.59;}.cls-27{opacity:0.57;}.cls-28{opacity:0.56;}.cls-29{opacity:0.54;}.cls-30{opacity:0.52;}.cls-31{opacity:0.5;}.cls-32{opacity:0.49;}.cls-33{opacity:0.47;}.cls-34{opacity:0.45;}.cls-35{opacity:0.44;}.cls-36{opacity:0.42;}.cls-37{opacity:0.4;}.cls-38{opacity:0.39;}.cls-39{opacity:0.37;}.cls-40{opacity:0.35;}.cls-41{opacity:0.33;}.cls-42{opacity:0.32;}.cls-43{opacity:0.3;}</style></defs><title>blend2</title><g class="cls-1"><path class="cls-2" d="M2.82,41.48c8.26-6.24,20.46-5.87,29.82-1.29S49,52.85,54.72,61.31c14.74,21.7,23,46.78,34.64,70.14s28.18,46.19,52.85,56.7c38.53,16.41,82.38-1.72,121.84-15.92,10.33-3.72,21.3-7.22,32.19-5.54,13.94,2.15,25.22,12.63,31.71,24.67s9,25.6,11.75,38.9c8.79,42.79,21.52,86.64,51.27,119.62s95.3,63,167.3,36.39" transform="translate(-2.59 -1.97)"/><path class="cls-3" d="M557.12,388.75c-40.41,14-78.63,9.09-109.55-4.06-22.06-9.39-40.35-22.94-52.71-37a188.5,188.5,0,0,1-28-42.88c-2.88-5.95-5.52-12-8-18.16a376.26,376.26,0,0,1-14.2-43.95q-1.69-6.48-3.23-12.92c-2.16-9.05-4.2-18.22-7.59-26.87A71.81,71.81,0,0,0,329,192.57a58.8,58.8,0,0,0-12.62-15c-5.6-4.73-12-8.31-19.06-9.66a37.35,37.35,0,0,0-8.15-.59c-7.77.24-15.48,2.58-22.85,5s-14.84,5-22.43,7.47c-19.3,6.24-39.2,11.6-58.94,11.67a90.93,90.93,0,0,1-37.37-7.31A87.72,87.72,0,0,1,126,170.59c-13.65-11.54-24.13-26.66-32.43-42S78.41,96.89,70.07,81.27A195.42,195.42,0,0,0,57.3,60.34c-5.91-8.34-13-16.37-22.45-21s-21.62-5.16-30,.75" transform="translate(-2.59 -1.97)"/><path class="cls-4" d="M556.88,390.86c-38.86,12.5-75.51,6.42-105.58-7.55-21.39-9.94-39.34-23.82-51.65-38.19A209.35,209.35,0,0,1,371.42,302c-3-5.95-5.73-12-8.32-18a396.42,396.42,0,0,1-15.35-42.62c-1.24-4.14-2.41-8.28-3.55-12.39-2.38-8.66-4.63-17.42-8.17-25.65a68,68,0,0,0-5.14-9.85A64.06,64.06,0,0,0,318,178.86c-5.67-4.75-11.92-8.52-18.73-10.06a35.14,35.14,0,0,0-7.85-.85c-7.47,0-14.88,2-21.95,4.16s-14.26,4.4-21.55,6.54c-18.55,5.44-37.66,10-57,9.39A93.43,93.43,0,0,1,132,166.21c-13.89-11.4-24.68-26-33.36-40.82-8.73-15-15.93-30.6-24.64-45.84A210.68,210.68,0,0,0,60.78,59C54.69,50.78,47.46,42.81,38,38.13s-21.68-5.38-30.09.2" transform="translate(-2.59 -1.97)"/><path class="cls-5" d="M557.49,392.65c-37.31,11-72.39,3.75-101.61-11-20.73-10.49-38.3-24.72-50.59-39.37a237.24,237.24,0,0,1-28.49-43.45c-3.08-5.93-5.95-12-8.69-17.9a432.27,432.27,0,0,1-16.49-41.3q-2-6-3.86-11.85c-2.61-8.28-5.09-16.62-8.77-24.44a64.9,64.9,0,0,0-5.33-9.36,71.77,71.77,0,0,0-13.22-14.12c-5.74-4.76-11.83-8.71-18.39-10.47a33.17,33.17,0,0,0-7.56-1.09c-7.17-.24-14.28,1.46-21.06,3.29s-13.67,3.77-20.66,5.6c-17.79,4.66-36.13,8.36-55.13,7.13a103.69,103.69,0,0,1-36.77-9.08,106.17,106.17,0,0,1-22-13.68c-14.13-11.27-25.24-25.4-34.3-39.66-9.09-14.42-16.7-29.49-25.79-44.35A231.37,231.37,0,0,0,65.11,57.35c-6.26-8.11-13.63-16-23.19-20.74S20.19,31,11.69,36.25" transform="translate(-2.59 -1.97)"/><path class="cls-6" d="M558.89,394.17c-35.76,9.5-69.25,1.09-97.64-14.53-20.05-11-37.28-25.61-49.53-40.56A268.7,268.7,0,0,1,383,295.36c-3.17-5.92-6.17-11.91-9.05-17.78-6.81-13.89-12.68-27-17.63-40q-2.18-5.69-4.18-11.32c-2.83-7.89-5.53-15.81-9.36-23.22a62.9,62.9,0,0,0-5.52-8.88,82.86,82.86,0,0,0-13.52-13.67c-5.82-4.79-11.74-8.92-18.07-10.89a32.36,32.36,0,0,0-7.26-1.34c-6.86-.48-13.67.91-20.16,2.43s-13.08,3.15-19.78,4.67c-17,3.87-34.59,6.75-53.22,4.85a112.08,112.08,0,0,1-36.47-10,117.77,117.77,0,0,1-22.15-13.72c-14.36-11.13-25.82-24.74-35.23-38.49S93.9,89.68,84.43,75.19c-4.37-6.64-9-13.3-14.2-19.76-6.43-8-13.93-15.85-23.56-20.62S24.88,29,16.31,33.9" transform="translate(-2.59 -1.97)"/><path class="cls-7" d="M561,395.47c-34.2,8-66.11-1.57-93.66-18a184.19,184.19,0,0,1-48.48-41.74,311.64,311.64,0,0,1-29-44c-3.26-5.91-6.38-11.87-9.4-17.65-7.17-13.68-13.46-26.3-18.78-38.64q-2.34-5.43-4.5-10.79c-3.05-7.5-6-15-9.95-22a60.1,60.1,0,0,0-5.71-8.39A98.91,98.91,0,0,0,327.72,181c-5.89-4.81-11.64-9.12-17.74-11.3a30.18,30.18,0,0,0-7-1.58c-6.57-.74-13.07.34-19.27,1.56s-12.49,2.52-18.89,3.73c-16.28,3.08-33.05,5.14-51.31,2.57a122.66,122.66,0,0,1-36.18-10.84A133,133,0,0,1,155,151.36c-14.6-11-26.39-24.1-36.17-37.33S100.62,86.76,90.78,72.66c-4.55-6.48-9.35-13-14.68-19.37C69.49,45.4,61.86,37.6,52.17,32.79s-21.85-6.05-30.49-1.46" transform="translate(-2.59 -1.97)"/><path class="cls-8" d="M563.87,396.59c-32.64,6.49-63-4.21-89.7-21.51a198,198,0,0,1-47.41-42.93,367.61,367.61,0,0,1-29.27-44.28c-3.36-5.9-6.59-11.83-9.77-17.52-7.51-13.49-14.22-25.57-19.91-37.32q-2.51-5.17-4.83-10.25c-3.27-7.12-6.4-14.21-10.54-20.79a58.18,58.18,0,0,0-5.9-7.91,122.87,122.87,0,0,0-14.12-12.8c-5.95-4.83-11.55-9.31-17.4-11.7a29.09,29.09,0,0,0-6.67-1.84c-6.27-1-12.47-.21-18.38.7s-11.9,1.89-18,2.79c-15.51,2.3-31.5,3.53-49.4.3a135.84,135.84,0,0,1-35.87-11.73A149.34,149.34,0,0,1,164.15,146a195.25,195.25,0,0,1-37.1-36.16C116.82,97,108,83.68,97.82,69.94c-4.73-6.3-9.69-12.7-15.16-19-6.78-7.78-14.54-15.51-24.3-20.37s-21.9-6.27-30.63-2" transform="translate(-2.59 -1.97)"/><path class="cls-9" d="M567.35,397.59c-31.09,5-59.82-6.85-85.73-25a214.52,214.52,0,0,1-46.35-44.11,441.85,441.85,0,0,1-29.53-44.57c-3.46-5.88-6.81-11.78-10.13-17.39-7.86-13.28-15-24.83-21.06-36q-2.67-4.92-5.14-9.71c-3.49-6.74-6.84-13.41-11.14-19.58a55.38,55.38,0,0,0-6.09-7.42,170.35,170.35,0,0,0-14.42-12.37c-6-4.84-11.45-9.51-17.07-12.11a28.85,28.85,0,0,0-6.37-2.08c-6-1.23-11.87-.77-17.49-.17s-11.31,1.27-17.12,1.86c-14.76,1.5-30,1.92-47.49-2a153.92,153.92,0,0,1-35.58-12.61A173,173,0,0,1,173.9,140.5a215.89,215.89,0,0,1-38-35c-10.59-12.25-19.76-25.07-30.37-38.4-4.89-6.14-10-12.4-15.63-18.59-7-7.66-14.86-15.34-24.68-20.25s-22-6.49-30.76-2.57" transform="translate(-2.59 -1.97)"/><path class="cls-10" d="M571.41,398.5C541.88,402,514.75,389,489.66,370a235.2,235.2,0,0,1-45.3-45.29c-10.79-14.42-20.56-29.64-29.79-44.85-3.55-5.87-7-11.73-10.49-17.26-8.2-13.07-15.77-24.09-22.2-34.66-1.88-3.1-3.7-6.17-5.46-9.18-3.71-6.35-7.28-12.6-11.73-18.37a57,57,0,0,0-6.28-6.93c-4-3.74-9.19-7.51-14.72-11.93-6.09-4.86-11.36-9.71-16.74-12.52a28.58,28.58,0,0,0-6.07-2.33c-5.67-1.47-11.27-1.31-16.59-1s-10.73.65-16.24.93c-14,.72-28.42.31-45.58-4.25a177,177,0,0,1-35.28-13.5,202.65,202.65,0,0,1-22.94-13.89,241.22,241.22,0,0,1-39-33.84c-11-11.7-20.52-24-31.52-36.91-5.06-6-10.36-12.1-16.11-18.19-7.13-7.56-15.16-15.17-25-20.13s-22-6.71-30.9-3.12" transform="translate(-2.59 -1.97)"/><path class="cls-11" d="M576,399.37c-28,2-53.52-12.09-77.79-32A261,261,0,0,1,454,320.9c-10.71-14.62-20.57-29.94-30.06-45.13-3.64-5.86-7.23-11.69-10.85-17.13-8.55-12.87-16.55-23.35-23.34-33.34q-3-4.4-5.78-8.64c-3.93-6-7.71-11.8-12.32-17.15a56.31,56.31,0,0,0-6.47-6.45c-4.16-3.5-9.43-7.06-15-11.49-6.17-4.88-11.27-9.91-16.41-12.93a27.66,27.66,0,0,0-5.78-2.58c-5.37-1.72-10.66-1.87-15.7-1.9s-10.14,0-15.34,0a142.36,142.36,0,0,1-43.68-6.52,210.54,210.54,0,0,1-35-14.39,242.56,242.56,0,0,1-23.14-13.94,274.89,274.89,0,0,1-39.9-32.67c-11.32-11.16-21.29-22.84-32.66-35.42-5.25-5.8-10.71-11.8-16.59-17.8-7.3-7.44-15.47-15-25.42-20s-22.07-6.93-31-3.67" transform="translate(-2.59 -1.97)"/><path class="cls-12" d="M581.1,400.26c-26.42.47-50.35-14.69-73.81-35.49a295,295,0,0,1-43.18-47.65c-10.61-14.83-20.57-30.26-30.31-45.42-3.74-5.85-7.45-11.65-11.21-17-8.9-12.67-17.32-22.62-24.48-32q-3.17-4.14-6.11-8.11a161.27,161.27,0,0,0-12.91-15.94,56.31,56.31,0,0,0-6.66-6c-4.28-3.25-9.67-6.61-15.32-11.06-6.23-4.89-11.17-10.09-16.07-13.34a28.66,28.66,0,0,0-5.49-2.82c-5.08-2-10.06-2.43-14.8-2.77s-9.56-.6-14.47-.94a147.2,147.2,0,0,1-41.77-8.8,262.07,262.07,0,0,1-34.68-15.27c-8.06-4.28-15.87-9.11-23.33-14a322.59,322.59,0,0,1-40.84-31.5C154,81.57,143.6,70.46,131.86,58.26c-5.43-5.63-11.05-11.5-17.07-17.41C107.31,33.52,99,26,89,21s-22.12-7.15-31.16-4.22" transform="translate(-2.59 -1.97)"/><path class="cls-13" d="M586.62,401.23c-24.87-1-47.2-17.28-69.85-39a338.93,338.93,0,0,1-42.11-48.84c-10.52-15-20.58-30.55-30.57-45.7-3.84-5.83-7.66-11.61-11.58-16.87-9.24-12.46-18.09-21.88-25.62-30.69q-3.31-3.87-6.42-7.57A157.7,157.7,0,0,0,387,197.86a59.23,59.23,0,0,0-6.86-5.48c-4.4-3-9.9-6.16-15.62-10.62-6.3-4.91-11.07-10.29-15.74-13.75a29.05,29.05,0,0,0-5.19-3.07c-4.78-2.22-9.46-3-13.91-3.63s-9-1.23-13.58-1.88c-11.73-1.65-23.79-4.51-39.86-11.07a345.84,345.84,0,0,1-34.38-16.15c-8.08-4.38-16-9.22-23.53-14a392.22,392.22,0,0,1-41.77-30.34c-12.06-10.09-22.84-20.62-34.95-32.44-5.6-5.46-11.39-11.2-17.55-17C116.38,31.16,108,23.72,97.87,18.62s-22.18-7.37-31.29-4.77" transform="translate(-2.59 -1.97)"/><path class="cls-14" d="M592.52,402.41c-23.32-2.54-44-19.86-65.88-42.48a399.13,399.13,0,0,1-41.05-50c-10.43-15.21-20.58-30.85-30.83-46-3.93-5.83-7.88-11.57-11.94-16.75C433.23,234.93,424,226,416.06,217.83q-3.48-3.62-6.74-7a154.47,154.47,0,0,0-14.1-13.5,62.67,62.67,0,0,0-7.05-5c-4.53-2.75-10.14-5.71-15.91-10.18-6.38-4.93-11-10.48-15.41-14.16a31.14,31.14,0,0,0-4.89-3.32,48.56,48.56,0,0,0-13-4.5c-4.14-.95-8.38-1.85-12.7-2.81-11-2.43-22.25-6.11-37.95-13.34-9.93-4.58-21.67-10.17-34.08-17-8.09-4.47-16.05-9.33-23.73-14.07a502,502,0,0,1-42.7-29.17c-12.42-9.56-23.61-19.52-36.1-31-5.78-5.29-11.73-10.9-18-16.63-7.82-7.11-16.38-14.48-26.53-19.63S84.89,8.89,75.7,11.15" transform="translate(-2.59 -1.97)"/><path class="cls-15" d="M598.75,403.85c-21.76-4-40.91-22.43-61.91-46a487,487,0,0,1-40-51.21c-10.35-15.41-20.59-31.16-31.1-46.25-4-5.82-8.09-11.53-12.29-16.62-9.95-12.06-19.65-20.41-27.91-28l-7.06-6.51A152.89,152.89,0,0,0,403.81,197a68.58,68.58,0,0,0-7.24-4.51c-4.66-2.5-10.39-5.26-16.22-9.74-6.44-4.95-10.88-10.68-15.08-14.57a33.08,33.08,0,0,0-4.59-3.57,49.41,49.41,0,0,0-12.13-5.36c-3.85-1.27-7.79-2.48-11.81-3.75-10.21-3.22-20.7-7.71-36-15.62-9.68-5-21.35-10.9-33.79-17.92-8.1-4.56-16.13-9.44-23.92-14.11-16.47-9.89-30.84-19-43.64-28S175,61.41,162.1,50.35c-5.95-5.12-12.06-10.6-18.49-16.24-8-7-16.7-14.31-26.91-19.5S94.41,6.79,85.14,8.73" transform="translate(-2.59 -1.97)"/><path class="cls-16" d="M605.25,405.61c-20.2-5.55-37.76-25-57.93-49.45a619.3,619.3,0,0,1-38.94-52.39c-10.25-15.61-20.59-31.46-31.35-46.54-4.12-5.8-8.31-11.48-12.66-16.49C454.08,228.89,444,221.07,435.32,214c-2.53-2.06-5-4.06-7.38-6A148,148,0,0,0,412.67,197a77.2,77.2,0,0,0-7.44-4c-4.78-2.26-10.62-4.81-16.51-9.31-6.52-5-10.79-10.87-14.75-15a36.91,36.91,0,0,0-4.29-3.81,52,52,0,0,0-11.24-6.23c-3.56-1.58-7.2-3.1-10.92-4.69-9.46-4-19.16-9.3-34.14-17.89-9.43-5.41-21-11.65-33.49-18.8-8.11-4.65-16.21-9.55-24.11-14.16-16.71-9.75-31.4-18.35-44.58-26.85a435.5,435.5,0,0,1-38.39-28c-6.13-5-12.4-10.3-19-15.85-8.17-6.88-17-14.14-27.27-19.38S104.21,5,94.87,6.62" transform="translate(-2.59 -1.97)"/><path class="cls-17" d="M612,407.74c-18.65-7.05-34.62-27.53-54-52.95-12.57-16.51-26.1-35.26-37.88-53.57-10.17-15.8-20.59-31.76-31.61-46.82a191.61,191.61,0,0,0-13-16.36c-10.64-11.64-21.19-18.94-30.19-25.37q-4-2.83-7.7-5.44a145.48,145.48,0,0,0-15.87-9.86c-2.24-1.17-4.75-2.37-7.62-3.54-4.92-2-10.86-4.35-16.82-8.87-6.58-5-10.69-11.06-14.41-15.39a44.27,44.27,0,0,0-4-4.06,58,58,0,0,0-10.35-7.1c-3.26-1.88-6.61-3.72-10-5.62-8.7-4.79-17.62-10.9-32.23-20.16-9.18-5.82-20.7-12.39-33.19-19.69-8.13-4.74-16.3-9.65-24.31-14.2-17-9.61-32-17.71-45.51-25.68a395.94,395.94,0,0,1-39.54-26.49c-6.31-4.78-12.74-10-19.45-15.46-8.35-6.77-17.31-14-27.65-19.25s-22.4-8.26-31.83-7" transform="translate(-2.59 -1.97)"/><path class="cls-18" d="M618.88,410.29c-17.09-8.56-31.49-30.07-50-56.44-11.9-17-25.09-36.14-36.82-54.75C522,283.09,511.47,267,500.2,252a172.81,172.81,0,0,0-13.38-16.23c-11-11.44-22-18.2-31.33-24q-4.12-2.57-8-4.9A145.43,145.43,0,0,0,431,198.16c-2.3-1-4.88-2-7.82-3-5-1.75-11.09-3.9-17.11-8.43-6.65-5-10.6-11.25-14.08-15.8a51,51,0,0,0-3.71-4.31,66.15,66.15,0,0,0-9.45-8c-3-2.2-6-4.35-9.14-6.55-7.95-5.59-16.08-12.5-30.32-22.44-8.94-6.24-20.38-13.13-32.9-20.58-8.14-4.83-16.39-9.76-24.51-14.24-17.18-9.47-32.5-17.07-46.44-24.52a363.46,363.46,0,0,1-40.69-25c-6.48-4.6-13.08-9.7-19.93-15.06-8.52-6.66-17.61-13.8-28-19.13s-22.45-8.48-31.95-7.54" transform="translate(-2.59 -1.97)"/><path class="cls-19" d="M625.91,413.31c-15.55-10.06-28.38-32.61-46-59.94-11.24-17.41-24.07-37-35.75-55.93A565.25,565.25,0,0,0,512,250.06,156,156,0,0,0,498.25,234c-11.33-11.24-22.74-17.46-32.47-22.72q-4.29-2.31-8.34-4.37a145,145,0,0,0-17.05-7.43c-2.36-.83-5-1.7-8-2.57-5.18-1.5-11.34-3.45-17.41-8-6.73-5-10.51-11.44-13.75-16.21-1.22-1.79-2.38-3.28-3.41-4.56a82.11,82.11,0,0,0-8.56-8.83c-2.69-2.5-5.44-5-8.26-7.48-7.19-6.38-14.53-14.1-28.41-24.72-8.69-6.64-20.06-13.87-32.6-21.45-8.16-4.93-16.47-9.87-24.71-14.29C277.86,82,262.22,74.9,247.9,68a338,338,0,0,1-41.83-23.51c-6.67-4.44-13.42-9.4-20.41-14.68-8.7-6.54-17.92-13.62-28.39-19S134.76,2.09,125.18,2.7" transform="translate(-2.59 -1.97)"/><path class="cls-20" d="M633,416.85c-14-11.57-25.27-35.13-42.06-63.43-10.59-17.85-23.06-37.88-34.69-57.12a473.18,473.18,0,0,0-32.4-47.66,143,143,0,0,0-14.1-16c-11.68-11-23.51-16.73-33.61-21.4q-4.45-2.06-8.66-3.83a140.91,140.91,0,0,0-17.65-6.22c-2.41-.66-5.14-1.36-8.19-2.08-5.31-1.25-11.58-3-17.72-7.56-6.79-5-10.41-11.62-13.42-16.62-1.12-1.86-2.18-3.45-3.11-4.8a107.76,107.76,0,0,0-7.66-9.7c-2.4-2.82-4.85-5.59-7.38-8.42-6.43-7.16-13-15.69-26.5-27-8.44-7.06-19.73-14.61-32.3-22.34-8.17-5-16.56-10-24.9-14.33C291,79.18,275,72.58,260.34,66.19s-28.24-12.85-43-22c-6.84-4.26-13.76-9.1-20.89-14.28C187.6,23.45,178.25,16.43,167.71,11s-22.57-8.91-32.22-8.64" transform="translate(-2.59 -1.97)"/><path class="cls-21" d="M640.11,421C627.67,407.89,617.94,383.31,602,354c-9.94-18.29-22-38.75-33.63-58.3a410.93,410.93,0,0,0-32.66-47.94A132.68,132.68,0,0,0,521.27,232c-12-10.83-24.29-16-34.76-20.07q-4.61-1.8-9-3.3a141.8,141.8,0,0,0-18.23-5c-2.47-.49-5.27-1-8.39-1.6-5.44-1-11.81-2.55-18-7.12-6.87-5.06-10.33-11.81-13.09-17-1-2-2-3.62-2.81-5.06-2.44-4.25-4.68-7.45-6.78-10.56s-4.26-6.22-6.49-9.36c-5.67-7.94-11.44-17.28-24.59-29.25-8.2-7.48-19.41-15.36-32-23.23C339,95.27,330.49,90.29,322,86,304.15,77,287.88,70.84,272.79,65s-29-11.74-44.12-20.53c-7-4.09-14.1-8.8-21.37-13.9-9-6.31-18.53-13.28-29.13-18.75s-22.62-9.14-32.35-9.2" transform="translate(-2.59 -1.97)"/><path class="cls-22" d="M647.18,425.69c-10.88-14.58-19.08-40.17-34.11-70.42-9.31-18.73-21.05-39.62-32.58-59.48a361.87,361.87,0,0,0-32.92-48.23,123.76,123.76,0,0,0-14.82-15.71c-12.38-10.63-25.06-15.26-35.9-18.75q-4.77-1.53-9.3-2.76a140,140,0,0,0-18.82-3.79l-8.58-1.11c-5.57-.73-12-2.1-18.31-6.68-6.94-5.08-10.24-12-12.76-17.44-.94-2-1.8-3.78-2.52-5.3-2.13-4.52-4.07-8-5.88-11.43s-3.67-6.84-5.6-10.29c-4.92-8.74-9.91-18.87-22.69-31.53-7.95-7.89-19.08-16.1-31.7-24.11a273.4,273.4,0,0,0-25.3-14.42c-18.12-8.92-34.7-14.53-50.18-19.86-15.31-5.27-29.78-10.63-45.26-19-7.21-3.92-14.44-8.5-21.85-13.51-9.21-6.2-18.84-13.11-29.5-18.63s-22.68-9.36-32.49-9.75" transform="translate(-2.59 -1.97)"/><path class="cls-23" d="M654.17,431.06c-9.32-16.08-16-42.67-30.15-73.9-8.67-19.17-20-40.5-31.51-60.67A325.42,325.42,0,0,0,559.33,248a117.67,117.67,0,0,0-15.18-15.59c-12.73-10.42-25.84-14.52-37-17.42-3.29-.84-6.5-1.59-9.62-2.22a140.85,140.85,0,0,0-19.42-2.58c-2.58-.16-5.54-.35-8.77-.62-5.7-.48-12.29-1.65-18.61-6.25-7-5.09-10.15-12.18-12.43-17.84-.84-2.1-1.6-4-2.22-5.55-1.83-4.78-3.47-8.57-5-12.3s-3.09-7.46-4.72-11.22c-4.16-9.53-8.37-20.46-20.78-33.81-7.71-8.29-18.77-16.84-31.4-25a235.29,235.29,0,0,0-25.5-14.46c-18.35-8.79-35.25-13.9-51.11-18.7C281.88,59.7,267,54.92,251.14,46.87a240.92,240.92,0,0,1-22.33-13.11c-9.39-6.09-19.14-12.93-29.87-18.51S176.2,5.67,166.32,5" transform="translate(-2.59 -1.97)"/><path class="cls-24" d="M661,437.14c-7.77-17.59-12.94-45.18-26.18-77.4-8.05-19.6-19-41.37-30.45-61.85C594.81,280.72,583.76,264,571,249.1a111.23,111.23,0,0,0-15.55-15.46c-13.07-10.22-26.61-13.78-38.18-16.09q-5.1-1-9.94-1.69a140.82,140.82,0,0,0-20-1.36c-2.65,0-5.67,0-9-.14-5.83-.22-12.53-1.2-18.91-5.81-7.07-5.11-10-12.37-12.09-18.26-.75-2.17-1.41-4.11-1.92-5.79-1.54-5-2.88-9.14-4.1-13.16s-2.5-8.09-3.83-12.16c-3.4-10.32-6.83-22.06-18.87-36.08-7.47-8.71-18.44-17.59-31.11-25.88a207,207,0,0,0-25.69-14.51C343.2,74.07,326,69.45,309.74,65.19c-16-4.21-31.33-8.41-47.55-16.07A222,222,0,0,1,239.38,36.4c-9.56-6-19.45-12.77-30.24-18.39s-22.79-9.8-32.76-10.85" transform="translate(-2.59 -1.97)"/><path class="cls-25" d="M667.68,444c-6.22-19.09-9.89-47.68-22.21-80.88-7.43-20-18-42.24-29.39-63-9.5-17.36-20.64-34.18-33.7-49.07a105.64,105.64,0,0,0-15.91-15.33c-13.42-10-27.38-13-39.32-14.76-3.51-.51-6.93-.89-10.26-1.16a143.22,143.22,0,0,0-20.6-.15c-2.7.17-5.8.33-9.16.35-6,0-12.76-.74-19.2-5.37-7.15-5.13-10-12.56-11.77-18.67-.66-2.25-1.21-4.28-1.62-6-1.23-5.3-2.27-9.69-3.21-14s-1.91-8.71-2.94-13.09c-2.65-11.1-5.3-23.64-17-38.36-7.22-9.11-18.12-18.32-30.81-26.76a185.5,185.5,0,0,0-25.89-14.55c-18.82-8.51-36.36-12.63-53-16.36C305.36,63,289.64,59.4,273,52.11a204.15,204.15,0,0,1-23.27-12.33C240,33.91,230,27.18,219.15,21.52s-22.85-10-32.89-11.4" transform="translate(-2.59 -1.97)"/><path class="cls-26" d="M674.09,451.59c-4.66-20.59-6.84-50.19-18.23-84.38-6.82-20.46-17-43.11-28.34-64.21-9.41-17.56-20.64-34.49-34-49.36a100.82,100.82,0,0,0-16.27-15.2c-13.76-9.81-28.15-12.31-40.46-13.44-3.62-.33-7.14-.53-10.58-.62a144.71,144.71,0,0,0-21.19,1.07c-2.76.33-5.93.66-9.35.83-6.09.31-13-.29-19.5-4.93-7.22-5.15-9.89-12.75-11.44-19.08-.56-2.32-1-4.45-1.32-6.29-.93-5.56-1.67-10.25-2.31-14.89s-1.33-9.34-2.06-14c-1.89-11.89-3.77-25.23-15.06-40.63-7-9.52-17.8-19.07-30.51-27.65a169.22,169.22,0,0,0-26.08-14.59c-19.06-8.37-36.91-12-53.92-15.2-16.75-3.14-32.88-6.17-49.85-13.09A190.64,190.64,0,0,1,259.9,44c-9.91-5.76-20.06-12.42-31-18.13s-22.91-10.25-33-12" transform="translate(-2.59 -1.97)"/><path class="cls-27" d="M680.21,460.07c-3.1-22.1-3.8-52.7-14.26-87.87-6.22-20.9-16-44-27.28-65.4C629.34,289.05,618,272,604.45,257.16a97,97,0,0,0-16.63-15.07c-14.11-9.61-28.93-11.58-41.6-12.11q-5.6-.22-10.9-.09a148,148,0,0,0-21.78,2.29c-2.82.5-6.06,1-9.54,1.32-6.23.56-13.25.15-19.81-4.51-7.29-5.16-9.8-12.92-11.1-19.48-.48-2.4-.83-4.61-1-6.54-.62-5.81-1.07-10.81-1.42-15.76s-.74-10-1.17-15c-1.13-12.68-2.23-26.82-13.15-42.9-6.73-9.93-17.47-19.81-30.21-28.53a154.28,154.28,0,0,0-26.28-14.64C380.54,78,362.37,74.81,345,72.15c-17.11-2.62-33.66-5.06-51-11.61A179.24,179.24,0,0,1,269.75,49c-10.09-5.65-20.37-12.25-31.36-18s-23-10.46-33.16-12.5" transform="translate(-2.59 -1.97)"/><path class="cls-28" d="M686,469.45c-1.55-23.6-.79-55.21-10.3-91.37-5.61-21.33-15-44.84-26.21-66.58-9.26-17.94-20.65-35.09-34.49-49.91a93.31,93.31,0,0,0-17-14.95c-14.46-9.4-29.7-10.84-42.74-10.78q-5.75,0-11.22.44a150.81,150.81,0,0,0-22.37,3.5c-2.88.67-6.19,1.34-9.73,1.81-6.36.83-13.49.61-20.11-4.07-7.36-5.18-9.71-13.11-10.77-19.89a68,68,0,0,1-.73-6.79c-.32-6.07-.46-11.37-.53-16.62s-.15-10.58-.29-15.9c-.37-13.46-.69-28.41-11.23-45.18-6.5-10.33-17.16-20.55-29.91-29.41a143.6,143.6,0,0,0-26.49-14.68c-19.52-8.09-38-10.74-55.78-12.87-17.47-2.09-34.43-3.94-52.14-10.11a169.06,169.06,0,0,1-24.71-11.16C269,49.4,258.57,42.85,247.51,37s-23-10.68-33.28-13" transform="translate(-2.59 -1.97)"/><path class="cls-29" d="M691.23,479.78c0-25.11,2.23-57.72-6.32-94.86-5-21.77-14-45.72-25.16-67.76C650.58,299,639.1,281.76,625,267c-5.35-5.65-11.09-10.93-17.35-14.82-14.81-9.2-30.48-10.1-43.89-9.45q-5.91.28-11.54,1a152.7,152.7,0,0,0-23,4.71,94.74,94.74,0,0,1-9.93,2.29c-6.48,1.1-13.72,1.06-20.4-3.63-7.43-5.2-9.63-13.3-10.44-20.3a65.84,65.84,0,0,1-.44-7c0-6.33.14-11.93.37-17.49s.44-11.21.6-16.84c.38-14.25.83-30-9.33-47.45-6.26-10.75-16.83-21.29-29.61-30.3a133.63,133.63,0,0,0-26.68-14.72c-19.76-8-38.56-10.11-56.72-11.7-17.83-1.56-35.2-2.83-53.29-8.63a162.14,162.14,0,0,1-25.19-10.76c-10.43-5.42-21-11.91-32.1-17.77S233,33.15,222.69,30.44" transform="translate(-2.59 -1.97)"/><path class="cls-30" d="M695.15,491.11c1.56-26.61,5.24-60.24-2.35-98.35-4.43-22.22-13-46.59-24.1-68.95-9.09-18.32-20.65-35.69-35-50.48-5.44-5.64-11.3-10.88-17.71-14.69-15.16-9-31.26-9.37-45-8.13q-6.08.56-11.86,1.52A158,158,0,0,0,535.54,258a89.58,89.58,0,0,1-10.11,2.77c-6.61,1.36-14,1.51-20.71-3.19-7.49-5.22-9.54-13.49-10.1-20.71a60.63,60.63,0,0,1-.14-7.28c.3-6.59.74-12.49,1.26-18.36s1-11.83,1.48-17.77c1.14-15,2.37-31.58-7.42-49.72-6-11.16-16.51-22-29.31-31.18a125.72,125.72,0,0,0-26.88-14.77c-20-7.82-39.11-9.48-57.65-10.54-18.19-1-36-1.72-54.43-7.14A154,154,0,0,1,295.86,69.7C285.25,64.39,274.57,58,263.38,52.06S240.26,40.93,229.83,37.9" transform="translate(-2.59 -1.97)"/><path class="cls-31" d="M698.29,503.48c3.11-28.11,8.24-62.75,1.62-101.84-3.84-22.65-12-47.46-23-70.13-9-18.51-20.66-36-35.26-50.76-5.54-5.62-11.52-10.84-18.08-14.56-15.5-8.79-32-8.63-46.17-6.8q-6.23.81-12.17,2.05A162.59,162.59,0,0,0,541,268.58a86.58,86.58,0,0,1-10.31,3.26c-6.73,1.63-14.2,2-21-2.75-7.57-5.24-9.46-13.68-9.77-21.12a57.4,57.4,0,0,1,.15-7.53c.61-6.84,1.35-13.05,2.15-19.22s1.62-12.46,2.37-18.71c1.9-15.82,3.89-33.17-5.51-52-5.78-11.56-16.19-22.77-29-32.06A118.41,118.41,0,0,0,443,103.64c-20.23-7.68-39.66-8.86-58.59-9.37-18.55-.51-36.75-.61-55.58-5.66a148.8,148.8,0,0,1-26.14-10c-10.78-5.19-21.6-11.56-32.85-17.51S246.69,49.77,236.19,46.4" transform="translate(-2.59 -1.97)"/><path class="cls-32" d="M700.7,517c4.67-29.62,11.22-65.28,5.58-105.33-3.25-23.11-11-48.33-22-71.32-8.94-18.7-20.67-36.3-35.53-51-5.63-5.61-11.72-10.8-18.43-14.43-15.85-8.59-32.8-7.9-47.32-5.48q-6.39,1.06-12.49,2.59a166.21,166.21,0,0,0-24.74,8.36,84.16,84.16,0,0,1-10.5,3.74c-6.85,1.89-14.43,2.42-21.3-2.31-7.64-5.26-9.38-13.87-9.44-21.53a58.56,58.56,0,0,1,.45-7.78c.92-7.1,2-13.61,3.05-20.09s2.2-13.08,3.25-19.64c2.66-16.61,5.42-34.76-3.6-54.27-5.54-12-15.87-23.52-28.72-32.95a112.31,112.31,0,0,0-27.27-14.85c-20.47-7.54-40.22-8.23-59.52-8.21-18.91,0-37.53.51-56.73-4.17a142.72,142.72,0,0,1-26.62-9.59c-11-5.08-21.9-11.39-33.22-17.39A254.56,254.56,0,0,0,241.81,56" transform="translate(-2.59 -1.97)"/><path class="cls-33" d="M702.37,531.59c6.22-31.13,14.21-67.81,9.56-108.83-2.68-23.55-10-49.2-20.92-72.5-8.86-18.9-20.67-36.6-35.79-51.32-5.72-5.6-11.94-10.76-18.79-14.3-16.2-8.38-33.58-7.16-48.46-4.15q-6.56,1.32-12.81,3.12a170.55,170.55,0,0,0-25.33,9.57,85.35,85.35,0,0,1-10.69,4.23c-7,2.16-14.68,2.87-21.6-1.88-7.71-5.27-9.3-14.06-9.11-21.94a57,57,0,0,1,.74-8c1.23-7.35,2.57-14.17,3.94-21s2.79-13.7,4.14-20.57c3.42-17.4,7-36.36-1.69-56.55-5.3-12.38-15.54-24.26-28.42-33.83a106.82,106.82,0,0,0-27.47-14.9c-20.7-7.4-40.77-7.6-60.45-7-19.28.54-38.31,1.67-57.87-2.68a138.92,138.92,0,0,1-27.11-9.19c-11.12-5-22.2-11.23-33.58-17.27a306,306,0,0,0-34-15.82" transform="translate(-2.59 -1.97)"/><path class="cls-34" d="M703.28,547.41c7.77-32.63,17.19-70.34,13.52-112.32A228,228,0,0,0,697,361.41c-8.79-19.09-20.68-36.9-36.05-51.61-5.82-5.58-12.15-10.71-19.16-14.17-16.54-8.18-34.34-6.42-49.59-2.82q-6.72,1.59-13.13,3.65a176.84,176.84,0,0,0-25.93,10.79A83.89,83.89,0,0,1,542.21,312c-7.11,2.42-14.91,3.31-21.9-1.44-7.78-5.3-9.21-14.26-8.78-22.35a57.68,57.68,0,0,1,1.05-8.28c1.53-7.6,3.16-14.72,4.83-21.82s3.37-14.33,5-21.5c4.17-18.2,8.48-38,.22-58.82-5.07-12.8-15.22-25-28.13-34.72a101.75,101.75,0,0,0-27.66-14.94c-20.93-7.27-41.32-7-61.39-5.88-19.63,1.07-39.08,2.78-59-1.19a134.77,134.77,0,0,1-27.58-8.81c-11.31-4.86-22.52-11-34-17.14a377.58,377.58,0,0,0-34.09-16.37" transform="translate(-2.59 -1.97)"/><path class="cls-35" d="M703.39,564.48c9.33-34.13,20.16-72.88,17.5-115.81a218.88,218.88,0,0,0-18.8-74.86c-8.71-19.29-20.68-37.21-36.31-51.89-5.91-5.58-12.36-10.67-19.51-14-16.9-8-35.13-5.69-50.74-1.5q-6.88,1.85-13.45,4.19a182.13,182.13,0,0,0-26.52,12,84.87,84.87,0,0,1-11.07,5.2c-7.23,2.69-15.15,3.77-22.2-1-7.85-5.31-9.13-14.44-8.45-22.76a60.12,60.12,0,0,1,1.34-8.52c1.84-7.86,3.77-15.28,5.73-22.69s4-14.95,5.91-22.44c4.93-19,10-39.54,2.12-61.1-4.83-13.2-14.9-25.74-27.82-35.6a97.88,97.88,0,0,0-27.87-15c-21.17-7.13-41.87-6.35-62.32-4.72-20,1.6-39.85,3.9-60.16.31a132.79,132.79,0,0,1-28.06-8.42c-11.47-4.75-22.82-10.88-34.33-17S265,96.6,254.16,91.91" transform="translate(-2.59 -1.97)"/><path class="cls-36" d="M702.67,582.85c10.88-35.64,23.13-75.42,21.46-119.31a211.35,211.35,0,0,0-17.73-76C697.77,368,685.71,350,669.83,335.33c-6-5.56-12.58-10.63-19.88-13.91-17.24-7.77-35.89-5-51.88-.18q-7,2.11-13.77,4.73a187.72,187.72,0,0,0-27.11,13.22,84.51,84.51,0,0,1-11.26,5.68c-7.35,3-15.39,4.22-22.5-.56-7.92-5.33-9-14.64-8.11-23.17a60,60,0,0,1,1.63-8.77c2.15-8.11,4.37-15.84,6.62-23.55s4.55-15.58,6.8-23.38c5.68-19.77,11.52-41.13,4-63.37-4.59-13.62-14.58-26.48-27.53-36.49a94.18,94.18,0,0,0-28.06-15c-21.4-7-42.43-5.72-63.26-3.55-20.36,2.12-40.62,5-61.3,1.79a129.87,129.87,0,0,1-28.54-8c-11.65-4.63-23.12-10.7-34.7-16.89s-23.46-12.45-34.35-17.47" transform="translate(-2.59 -1.97)"/><path class="cls-37" d="M701.06,602.56c12.45-37.14,26.1-78,25.44-122.79a204.83,204.83,0,0,0-16.67-77.23c-8.56-19.67-20.69-37.81-36.83-52.45-6.11-5.55-12.8-10.59-20.24-13.79-17.59-7.56-36.67-4.21-53,1.16q-7.22,2.37-14.09,5.26A192.44,192.44,0,0,0,558,357.15a85.93,85.93,0,0,1-11.46,6.17c-7.47,3.22-15.63,4.67-22.8-.13-8-5.35-9-14.82-7.78-23.58a61.33,61.33,0,0,1,1.94-9c2.45-8.37,5-16.4,7.5-24.42s5.14-16.2,7.69-24.31c6.44-20.56,13.05-42.72,5.94-65.64-4.36-14-14.26-27.23-27.23-37.38a90.81,90.81,0,0,0-28.26-15.07c-21.64-6.85-43-5.13-64.19-2.38-20.73,2.61-41.39,6.12-62.45,3.28a127.68,127.68,0,0,1-29-7.64c-11.83-4.52-23.44-10.53-35.08-16.76s-23.51-12.68-34.48-18" transform="translate(-2.59 -1.97)"/><path class="cls-38" d="M698.54,623.67c14-38.64,29.06-80.51,29.41-126.28A199.26,199.26,0,0,0,712.34,419c-8.49-19.86-20.7-38.12-37.09-52.74-6.2-5.54-13-10.54-20.61-13.65-17.93-7.37-37.44-3.48-54.16,2.48q-7.37,2.63-14.41,5.79a199,199,0,0,0-28.29,15.65,88.7,88.7,0,0,1-11.65,6.66c-7.59,3.48-15.86,5.12-23.09.3-8.06-5.36-8.88-15-7.46-24a63.51,63.51,0,0,1,2.24-9.27c2.75-8.61,5.57-17,8.4-25.28s5.73-16.83,8.57-25.25c7.2-21.34,14.57-44.31,7.84-67.91-4.11-14.44-13.93-28-26.93-38.26a87.6,87.6,0,0,0-28.45-15.11c-21.87-6.72-43.54-4.51-65.12-1.22-21.1,3.14-42.17,7.23-63.6,4.76A126,126,0,0,1,329,174.71c-12-4.41-23.74-10.36-35.45-16.64S270,145.17,259,139.49" transform="translate(-2.59 -1.97)"/><path class="cls-39" d="M695.06,646.23c15.55-40.15,32-83.07,33.38-129.78a195.46,195.46,0,0,0-14.56-79.59c-8.45-20-20.7-38.42-37.35-53-6.29-5.53-13.22-10.5-21-13.53-18.29-7.16-38.22-2.75-55.31,3.81q-7.53,2.88-14.73,6.32a206.14,206.14,0,0,0-28.88,16.87,89.94,89.94,0,0,1-11.84,7.14c-7.72,3.75-16.1,5.57-23.4.74-8.12-5.38-8.79-15.21-7.11-24.39a64.55,64.55,0,0,1,2.52-9.52c3.07-8.86,6.18-17.51,9.3-26.15s6.31-17.45,9.45-26.18c8-22.13,16.06-45.89,9.76-70.19-3.91-14.84-13.61-28.71-26.63-39.14a84.82,84.82,0,0,0-28.65-15.15c-22.11-6.58-44.1-3.87-66.06-.06-21.46,3.67-42.94,8.35-64.75,6.26a125.37,125.37,0,0,1-30-6.85c-12.17-4.3-24-10.2-35.81-16.52s-23.63-13.12-34.75-19.14" transform="translate(-2.59 -1.97)"/><path class="cls-40" d="M690.56,670.29c17.11-41.66,35-85.64,37.35-133.28a190.91,190.91,0,0,0-13.5-80.77c-8.36-20.23-20.7-38.72-37.6-53.3-6.4-5.51-13.44-10.45-21.33-13.4-18.63-7-39-2-56.45,5.14q-7.68,3.15-15,6.86a209.38,209.38,0,0,0-29.47,18.08,92.82,92.82,0,0,1-12,7.63c-7.84,4-16.34,6-23.7,1.18-8.19-5.4-8.72-15.41-6.78-24.81a66.93,66.93,0,0,1,2.82-9.76c3.39-9.11,6.77-18.07,10.19-27s6.9-18.08,10.34-27.12c8.71-22.92,17.59-47.49,11.66-72.46-3.66-15.26-13.28-29.46-26.33-40A82.55,82.55,0,0,0,491.83,212c-22.34-6.44-44.65-3.24-67,1.11-21.82,4.2-43.71,9.46-65.89,7.75a124.13,124.13,0,0,1-30.45-6.46c-12.34-4.19-24.35-10-36.19-16.4s-23.67-13.34-34.88-19.68" transform="translate(-2.59 -1.97)"/><path class="cls-41" d="M685,695.89c18.66-43.16,37.93-88.2,41.32-136.77,1.9-27.25-2-56.13-12.44-82-8.28-20.42-20.71-39-37.87-53.57-6.49-5.51-13.65-10.42-21.69-13.27-19-6.75-39.76-1.28-57.58,6.46q-7.86,3.41-15.37,7.4a215.34,215.34,0,0,0-30.07,19.29,92.86,92.86,0,0,1-12.22,8.11c-8,4.3-16.58,6.48-24,1.62-8.26-5.42-8.64-15.6-6.45-25.22a69.14,69.14,0,0,1,3.12-10c3.69-9.37,7.37-18.63,11.08-27.89s7.49-18.69,11.23-28c9.47-23.7,19.12-49.09,13.57-74.73-3.42-15.68-13-30.2-26-40.91a80,80,0,0,0-29-15.25c-22.58-6.3-45.21-2.6-67.93,2.28-22.18,4.73-44.48,10.57-67,9.23a122.8,122.8,0,0,1-30.92-6.07c-12.52-4.07-24.66-9.85-36.56-16.27s-23.73-13.56-35-20.24" transform="translate(-2.59 -1.97)"/><path class="cls-42" d="M678.34,723.08c20.22-44.66,40.89-90.77,45.29-140.25,2.47-27.73-1-57-11.37-83.15-8.2-20.62-20.71-39.32-38.13-53.85-6.58-5.5-13.87-10.38-22-13.15-19.33-6.54-40.54-.53-58.73,7.79q-8,3.67-15.69,7.94A223.61,223.61,0,0,0,547,468.91a95.66,95.66,0,0,1-12.42,8.6c-8.08,4.55-16.82,6.93-24.29,2.05-8.34-5.43-8.55-15.78-6.13-25.62a72.9,72.9,0,0,1,3.42-10.25q6-14.43,12-28.75,6.08-14.51,12.12-29c10.22-24.49,20.66-50.69,15.48-77C544,292.85,534.52,278,521.42,267.15a77.83,77.83,0,0,0-29.24-15.29c-22.81-6.16-45.76-2-68.86,3.44C400.77,260.57,378.06,267,355.13,266a122.11,122.11,0,0,1-31.4-5.68c-12.69-4-25-9.67-36.93-16.14S263,230.42,251.65,223.41" transform="translate(-2.59 -1.97)"/><path class="cls-43" d="M670.53,751.92c21.77-46.16,43.83-93.34,49.26-143.75s-8.58-105.51-48.71-138.46c-6.68-5.48-14.08-10.33-22.41-13-19.67-6.35-41.31.2-59.87,9.11A232.3,232.3,0,0,0,541.54,496c-10.68,8.82-25.52,19.15-37.2,11.58-11.46-7.44-7.4-24.29-2.07-36.54l25.86-59.53c11-25.29,22.2-52.29,17.39-79.29-4.84-27.18-27.15-50.76-54.88-58-45.54-11.9-91.94,18-139.12,16.82-38.37-1-72.57-22.18-104.47-42.65" transform="translate(-2.59 -1.97)"/></g></svg>