<svg id="Layer_1" data-name="Layer 1" xmlns="http://www.w3.org/2000/svg" viewBox="0 0 1779.24 501.94"><defs><style>.cls-1{fill:none;stroke:#007baa;stroke-miterlimit:10;stroke-width:0.37px;}</style></defs><title>blend</title><path class="cls-1" d="M6.23,280c225.15-33.56,234.61,6.12,376,149,26.92,27.21,93.59,90.87,163.11,57.6,68.4-32.73,69-96.94,128.93-133.6,75.26-46,151.11-32.42,172.61-25,20.08,6.93,71.51,25.72,104.5,45,118.89,69.49,98.16,104.44,112,112,83.25,45.61,192.36-102.42,265-62,29.08,16.18,28.36,49.47,74.65,70,6.61,2.94,32.86,14.51,57.84,11,81.88-11.51,81.71-58.55,181-112,27-14.54,69.77-25.42,137.16-5" transform="translate(0.19 -2.91)"/><path class="cls-1" d="M6.16,274.57C183.47,249,228,268.78,311.77,351.51c20.36,20,42.89,43.75,70.07,71.5s92.42,91.49,161.86,59c31.29-14.66,48.78-36,64.11-58.22,19-27.52,33.64-56,66.86-76.42,74.88-45.94,151-32.94,173.37-25.06,5.28,1.84,12.61,4.48,21.16,7.73,24.58,9.42,58.74,23.88,83,38.5a545.39,545.39,0,0,1,59.4,40.85,216.26,216.26,0,0,1,24.33,22.3c25,27.43,20.27,42.44,29,46.85a73.26,73.26,0,0,0,31.84,7.95c51.12,1.1,109.11-44.06,160.42-65.11,26.79-10.89,51.79-15.2,73.5-2.93,24.17,13.72,28,39,55.19,58.41A97.35,97.35,0,0,0,1406,487.93c6.77,2.77,32.8,13.64,57.9,9.95,80.88-11.89,81.41-57.92,179.36-110.39,27-14.3,69.33-24.95,135.77-4.9" transform="translate(0.19 -2.91)"/><path class="cls-1" d="M6.09,269.14C179.31,245,226.7,264.3,311.33,345.84c20.6,19.84,43.22,43.44,70.11,71.18,27.4,28.26,91.26,92.11,160.59,60.32,31.71-14.54,49.64-36.1,65.34-58.29,19.87-28.09,34.13-56.6,67.68-77.38,74.5-45.86,150.92-33.41,174.14-25.14,5.33,1.9,12.69,4.55,21.2,7.87C895.15,334.06,928.92,349,953,364a669.22,669.22,0,0,1,59.37,41.28A221.57,221.57,0,0,1,1037,427c25.18,26.55,20.71,40.95,29.47,45a75.41,75.41,0,0,0,31.72,7.14c51.12.16,109.88-43.72,161.31-63.62,26.9-10.41,51.9-14.16,73.52-1.71,24.26,14,28.34,39.34,55.7,58.32A92.07,92.07,0,0,0,1409,482.86c6.92,2.61,32.73,12.77,58,8.9,79.89-12.25,80.9-57.67,177.71-108.77,26.86-14.18,68.89-24.5,134.38-4.81" transform="translate(0.19 -2.91)"/><path class="cls-1" d="M6,263.71c169.13-22.71,219.55-4,304.88,76.46C331.76,359.84,354.44,383.31,381,411c27.64,28.8,90.1,92.75,159.32,61.68,32.14-14.42,50.5-36.16,66.58-58.36,20.74-28.66,34.56-57.3,68.5-78.35,74-45.91,150.82-33.9,174.89-25.2,5.39,1.94,12.78,4.62,21.26,8,24.92,9.93,58.3,25.39,82.16,40.7,25.14,16.06,44.12,30.2,59.34,41.71,10.54,8,18.73,14.81,25,21.13,25.34,25.69,21.14,39.46,29.94,43.16a78,78,0,0,0,31.6,6.33c51.13-.79,110.69-43.31,162.21-62.14,27-9.87,52-13.09,73.52-.47,24.34,14.25,28.65,39.7,56.22,58.21a87.3,87.3,0,0,0,20.4,10.37c7.08,2.44,32.66,11.9,58,7.85,78.89-12.61,80.51-57.23,176-107.17,26.79-14,68.46-24,133-4.72" transform="translate(0.19 -2.91)"/><path class="cls-1" d="M5.94,258.27C171,237,224.42,255.12,310.46,334.5c21.13,19.5,43.86,42.85,70.18,70.54,27.87,29.33,88.95,93.39,158.06,63,32.55-14.3,51.36-36.21,67.8-58.43,21.62-29.22,35-57.95,69.32-79.32,73.61-45.87,150.73-34.4,175.65-25.27,5.46,2,12.86,4.7,21.32,8.14,25.08,10.2,58.07,26.14,81.74,41.8,24.93,16.38,43.83,30.76,59.32,42.15,10.65,7.82,19,14.4,25.27,20.54,25.49,24.81,21.57,38,30.42,41.31a80.39,80.39,0,0,0,31.47,5.52c51.13-1.62,111.51-42.9,163.11-60.66,27.14-9.34,52.07-12,73.53.76,24.41,14.54,29,40.06,56.73,58.12a83.08,83.08,0,0,0,20.55,10c7.24,2.28,32.59,11,58,6.8,77.91-12.95,80.13-56.78,174.41-105.56,26.71-13.82,68-23.58,131.61-4.62" transform="translate(0.19 -2.91)"/><path class="cls-1" d="M5.87,252.84c161-19.81,217.41-2.31,304.15,76,21.41,19.33,44.18,42.55,70.22,70.22,28.11,29.87,87.81,94,156.79,64.4,33-14.18,52.23-36.27,69-58.5,22.5-29.79,35.5-58.6,70.15-80.28,73.2-45.82,150.63-34.9,176.41-25.34,5.51,2,12.94,4.77,21.36,8.27,25.25,10.48,57.85,26.9,81.34,42.9,24.71,16.71,43.52,31.32,59.29,42.58,10.76,7.69,19.2,14,25.58,20,25.63,23.93,22,36.46,30.89,39.45a83.47,83.47,0,0,0,31.35,4.72c51.14-2.54,112.33-42.48,164-59.17,27.26-8.81,52.15-11,73.54,2,24.48,14.82,29.28,40.42,57.25,58a78.75,78.75,0,0,0,20.69,9.62c7.41,2.12,32.51,10.17,58.1,5.75,76.91-13.27,79.74-56.32,172.75-104,26.65-13.64,67.58-23.12,130.23-4.52" transform="translate(0.19 -2.91)"/><path class="cls-1" d="M5.79,247.41c156.87-18.37,216.37-1.48,303.79,75.75,21.68,19.15,44.5,42.27,70.26,69.91,28.34,30.4,86.67,94.7,155.53,65.75,33.4-14.05,53.1-36.32,70.26-58.57,23.38-30.35,36-59.24,71-81.25,72.79-45.77,150.54-35.4,177.17-25.41,5.58,2.09,13,4.85,21.42,8.41,25.41,10.75,57.63,27.65,80.92,44,24.5,17,43.22,31.88,59.26,43,10.87,7.55,19.45,13.6,25.91,19.37,25.76,23.06,22.38,35,31.36,37.61,10.22,3,20.34,4.65,31.23,3.92,51.14-3.47,113.14-42.07,164.9-57.7,27.38-8.27,52.24-9.88,73.55,3.23,24.55,15.1,29.61,40.76,57.76,57.9a75.44,75.44,0,0,0,20.83,9.25c7.59,2,32.44,9.31,58.16,4.7,75.92-13.58,79.35-55.86,171.1-102.33,26.58-13.46,67.14-22.66,128.84-4.43" transform="translate(0.19 -2.91)"/><path class="cls-1" d="M5.72,242c152.78-16.93,215.32-.65,303.42,75.51,22,19,44.81,42,70.3,69.59C408,418,465,482.45,533.7,454.19c33.84-13.92,54-36.36,71.49-58.64,24.28-30.91,36.43-59.89,71.78-82.22,72.39-45.71,150.45-35.9,177.94-25.47,5.63,2.13,13.09,4.92,21.46,8.54,25.58,11,57.37,28.46,80.52,45.1,24.24,17.42,42.91,32.44,59.23,43.45,11,7.4,19.68,13.18,26.22,18.78,25.89,22.18,22.78,33.47,31.83,35.76,10.18,2.59,20.24,4,31.11,3.11,51.14-4.39,114-41.65,165.8-56.22,27.51-7.73,52.32-8.8,73.55,4.46,24.63,15.39,29.94,41.12,58.28,57.81,6.23,3.66,12.93,7,21,8.88,7.76,1.77,32.37,8.44,58.2,3.65,74.93-13.89,79-55.4,169.46-100.73,26.5-13.28,66.7-22.2,127.45-4.33" transform="translate(0.19 -2.91)"/><path class="cls-1" d="M5.65,236.55c148.69-15.48,214.27.17,303.05,75.27,22.24,18.8,45.12,41.7,70.34,69.27,28.8,31.48,84.42,96.05,153,68.47,34.26-13.79,54.87-36.41,72.72-58.71,25.17-31.46,36.89-60.54,72.6-83.18,72-45.66,150.36-36.41,178.69-25.55,5.7,2.18,13.18,5,21.52,8.68C903.3,302.11,934.71,320,957.67,337c24,17.77,42.61,33,59.2,43.89,11.1,7.27,19.93,12.78,26.54,18.2,26,21.3,23.17,32,32.3,33.91,10.14,2.16,20.13,3.42,31,2.3,51.15-5.31,114.8-41.22,166.7-54.73,27.64-7.2,52.4-7.73,73.56,5.69,24.7,15.67,30.28,41.46,58.8,57.7,6.32,3.6,13.06,6.88,21.11,8.51s32.3,7.58,58.26,2.6c73.94-14.18,78.61-54.93,167.8-99.12,26.44-13.1,66.27-21.74,126.07-4.23" transform="translate(0.19 -2.91)"/><path class="cls-1" d="M5.57,231.12c144.61-14,213.24,1,302.7,75,22.51,18.63,45.42,41.42,70.37,69,29,32,83.3,96.74,151.73,69.83,34.7-13.65,55.76-36.45,74-58.78,26.08-32,37.36-61.18,73.42-84.15C749.32,256.41,828,265.09,857.2,276.39c5.76,2.23,13.25,5.08,21.57,8.81a440.72,440.72,0,0,1,79.68,47.29c23.81,18.1,42.31,33.58,59.18,44.32,11.2,7.14,20.16,12.38,26.85,17.62,26.11,20.43,23.56,30.47,32.78,32.06,10.08,1.74,20,2.81,30.86,1.49,51.16-6.24,115.63-40.79,167.6-53.25,27.76-6.66,52.49-6.65,73.57,6.92,24.77,16,30.61,41.81,59.31,57.6,6.42,3.54,13.21,6.72,21.26,8.14s32.22,6.72,58.31,1.55c72.94-14.46,78.24-54.44,166.15-97.5,26.37-12.92,65.82-21.29,124.68-4.15" transform="translate(0.19 -2.91)"/><path class="cls-1" d="M5.5,225.69c140.51-12.6,212.21,1.82,302.33,74.79,22.79,18.45,45.73,41.14,70.41,68.63,29.25,32.58,82.19,97.44,150.46,71.19,35.14-13.52,56.66-36.49,75.19-58.85,27-32.57,37.83-61.83,74.24-85.12,71.17-45.53,150.17-37.42,180.21-25.68,5.82,2.28,13.33,5.17,21.62,9C906,291.47,936.64,310.34,959.24,328c23.58,18.43,42,34.15,59.14,44.75,11.32,7,20.39,12,27.17,17,26.21,19.56,23.93,29,33.25,30.22,10,1.32,19.92,2.19,30.75.68,51.16-7.16,116.45-40.36,168.49-51.77,27.9-6.11,52.57-5.57,73.57,8.16,24.85,16.24,31,42.14,59.83,57.5,6.53,3.47,13.36,6.55,21.4,7.76,8.33,1.25,32.15,5.87,58.36.5,72-14.72,77.89-54,164.51-95.89,26.3-12.74,65.38-20.82,123.29-4.05" transform="translate(0.19 -2.91)"/><path class="cls-1" d="M5.43,220.25c136.42-11.15,211.18,2.64,302,74.56,23.07,18.27,46,40.87,70.45,68.31,29.47,33.13,81.08,98.14,149.2,72.54,35.58-13.37,57.55-36.52,76.41-58.91,27.89-33.12,38.3-62.47,75.06-86.08,70.78-45.47,150.08-37.93,181-25.75,5.89,2.32,13.42,5.24,21.68,9.08,26.22,12.16,56.45,31.5,78.86,49.49,23.36,18.76,41.7,34.71,59.12,45.19,11.42,6.86,20.62,11.56,27.48,16.44,26.3,18.69,24.67,25.61,33.73,28.37,9.55,2.9,19.81,1.58,30.62-.13,51.17-8.09,117.29-39.93,169.39-50.29,28-5.57,52.65-4.49,73.58,9.4,24.92,16.53,31.3,42.47,60.35,57.39,6.62,3.4,13.5,6.38,21.54,7.39,8.52,1.07,32.07,5,58.41-.54,71-15,77.53-53.47,162.85-94.29,26.25-12.55,65-20.36,121.91-3.95" transform="translate(0.19 -2.91)"/><path class="cls-1" d="M5.35,214.82c132.34-9.7,210.16,3.45,301.6,74.32,23.36,18.09,46.33,40.6,70.48,68,29.7,33.68,80,98.86,147.94,73.9,36-13.22,58.45-36.55,77.64-59,28.81-33.66,38.77-63.1,75.89-87,70.37-45.4,150-38.44,181.73-25.82,5.94,2.36,13.49,5.33,21.73,9.22,26.37,12.44,56.22,32.26,78.45,50.59,23.14,19.09,41.38,35.28,59.09,45.62,11.52,6.73,20.84,11.15,27.8,15.86,26.37,17.83,25,24,34.19,26.52,9.53,2.63,19.7,1,30.5-.94,51.18-9,118.13-39.49,170.29-48.8,28.16-5,52.73-3.42,73.59,10.62,25,16.82,31.65,42.81,60.86,57.29,6.73,3.34,13.66,6.21,21.69,7,8.71.88,32,4.16,58.46-1.6,70-15.22,77.17-53,161.2-92.67C1684.66,325.54,1723,318,1779,334.06" transform="translate(0.19 -2.91)"/><path class="cls-1" d="M5.28,209.39c128.25-8.26,209.15,4.26,301.24,74.08,23.63,17.92,46.62,40.33,70.51,67.67,29.92,34.23,78.89,99.58,146.68,75.26,36.46-13.08,59.35-36.59,78.87-59.06,29.72-34.2,39.24-63.74,76.7-88,70-45.32,149.9-38.95,182.49-25.88,6,2.4,13.57,5.41,21.78,9.35,26.54,12.73,56,33,78,51.69,22.92,19.43,41.07,35.85,59.06,46.05,11.63,6.6,21.07,10.75,28.12,15.27,26.44,17,25.29,22.36,34.66,24.67s19.6.36,30.38-1.74c51.19-9.95,119-39.05,171.19-47.32,28.3-4.48,52.81-2.34,73.59,11.86,25.06,17.11,32,43.13,61.38,57.19,6.84,3.27,13.85,7.6,21.83,6.65,8.87-1.06,31.92,3.31,58.52-2.65,69-15.45,76.82-52.46,159.54-91.06C1686,321.22,1723.93,314,1779,329.65" transform="translate(0.19 -2.91)"/><path class="cls-1" d="M5.21,204c124.16-6.82,208.13,5.06,300.87,73.84C330,295.54,353,317.86,376.63,345.15c30.14,34.79,77.79,100.32,145.41,76.62,36.91-12.93,60.26-36.62,80.1-59.13,30.64-34.74,39.71-64.38,77.52-89,69.59-45.25,149.82-39.47,183.26-26,6.07,2.45,13.64,5.49,21.83,9.49,26.69,13,55.77,33.78,77.62,52.79,22.71,19.76,40.77,36.42,59,46.49,11.73,6.46,21.29,10.34,28.43,14.68,26.49,16.11,25.58,20.76,35.14,22.82s19.49-.26,30.26-2.55c51.19-10.88,119.81-38.6,172.08-45.84,28.43-3.93,52.89-1.25,73.6,13.09,25.13,17.41,32.36,43.46,61.9,57.09,6.94,3.2,14,7.46,22,6.28,9-1.34,31.84,2.46,58.56-3.7,68-15.67,76.49-52,157.9-89.45,26.06-12,63.63-19,117.75-3.66" transform="translate(0.19 -2.91)"/><path class="cls-1" d="M5.13,198.53c120.08-5.38,207.13,5.86,300.51,73.6,24.2,17.55,47.21,39.8,70.59,67,30.35,35.35,76.7,101.06,144.15,78,37.35-12.78,61.16-36.65,81.33-59.2,31.56-35.28,40.18-65,78.34-89.94,69.19-45.18,149.72-40,184-26,6.13,2.49,13.72,5.57,21.88,9.62,26.86,13.31,55.55,34.53,77.22,53.89,22.48,20.09,40.45,37,59,46.92,11.84,6.33,21.51,9.94,28.75,14.1,26.54,15.26,25.86,19.17,35.61,21,9.48,1.76,19.38-.87,30.14-3.36,51.21-11.81,120.66-38.15,173-44.35,28.57-3.39,53-.18,73.61,14.32,25.19,17.7,32.72,43.77,62.41,57,7,3.14,14.25,7.31,22.11,5.91,9.17-1.62,31.77,1.62,58.62-4.74,67-15.89,76.14-51.44,156.25-87.85,26-11.81,63.19-18.52,116.36-3.57" transform="translate(0.19 -2.91)"/><path class="cls-1" d="M5.06,193.1c116-3.93,206.13,6.65,300.14,73.36,24.49,17.37,47.5,39.54,70.63,66.72,30.57,35.9,75.61,101.8,142.88,79.33,37.8-12.62,62.07-36.67,82.56-59.27,32.49-35.82,40.65-65.66,79.16-90.91,68.8-45.09,149.64-40.49,184.77-26.09,6.2,2.54,13.81,5.66,21.94,9.76,27,13.6,55.31,35.29,76.8,55,22.27,20.42,40.14,37.57,59,47.35,11.94,6.2,21.73,9.53,29.06,13.51,26.58,14.43,26.12,17.61,36.09,19.13,9.47,1.45,19.27-1.49,30-4.16,51.22-12.76,121.5-37.71,173.87-42.88,28.72-2.84,53.06.91,73.62,15.56,25.27,18,33.09,44.09,62.93,56.88,7.15,3.06,14.45,7.13,22.26,5.53,9.32-1.89,31.69.78,58.67-5.79,66-16.09,75.81-50.91,154.59-86.23,25.94-11.63,62.76-18.07,115-3.48" transform="translate(0.19 -2.91)"/><path class="cls-1" d="M5,187.67c111.9-2.49,205.13,7.44,299.77,73.12,24.78,17.19,47.79,39.28,70.67,66.4C406.21,363.66,450,429.74,517,407.88c38.25-12.46,63-36.7,83.8-59.34,33.42-36.35,41.12-66.3,80-91.87,68.4-45,149.55-41,185.53-26.16,6.26,2.58,13.88,5.74,22,9.89,27.17,13.9,55.08,36,76.39,56.09,22,20.75,39.82,38.14,58.94,47.79,12.05,6.07,21.95,9.12,29.38,12.92,26.61,13.59,26.4,18.72,36.56,17.28,9.44-1.34,19.17-2.11,29.89-5,51.23-13.7,122.35-37.25,174.77-41.4,28.86-2.28,53.14,2,73.63,16.79,25.33,18.29,33.45,44.4,63.45,56.78,7.25,3,14.64,6.94,22.4,5.17,9.46-2.17,31.61-.07,58.71-6.85,65-16.27,75.49-50.37,153-84.62,25.88-11.44,62.32-17.61,113.59-3.38" transform="translate(0.19 -2.91)"/><path class="cls-1" d="M4.91,182.24c107.81-1.05,204.15,8.23,299.42,72.88,25.06,17,48.06,39,70.7,66.08,31,37,73.45,103.31,140.35,82.05,38.7-12.3,63.89-36.72,85-59.41C634.75,307,642,276.9,681.2,251c68-44.94,149.46-41.53,186.29-26.23,6.32,2.63,14,5.83,22,10,27.33,14.19,54.86,36.8,76,57.19,21.83,21.08,39.51,38.72,58.92,48.22,12.14,5.94,22.16,8.73,29.69,12.34,26.64,12.76,26.75,17.28,37,15.43,9.34-1.69,19.06-2.73,29.76-5.78,51.24-14.63,123.21-36.79,175.67-39.91,29-1.73,53.22,3.08,73.64,18,25.4,18.58,33.81,44.7,64,56.67,7.37,2.93,14.84,6.75,22.54,4.8,9.62-2.44,31.54-.9,58.77-7.9,64.06-16.45,75.16-49.83,151.3-83,25.82-11.25,61.87-17.14,112.2-3.28" transform="translate(0.19 -2.91)"/><path class="cls-1" d="M4.84,176.8c103.72.4,203.15,9,299.05,72.65,25.35,16.82,48.35,38.77,70.74,65.76,31.19,37.6,72.37,104.09,139.08,83.41,39.15-12.13,64.81-36.74,86.26-59.48,35.29-37.41,42.06-67.57,81.62-93.81,67.62-44.85,149.37-42.05,187-26.29,6.38,2.66,14,5.91,22.09,10.16,27.48,14.49,54.63,37.56,75.56,58.29,21.62,21.4,39.19,39.29,58.9,48.65,12.24,5.82,22.36,8.33,30,11.76,26.64,11.93,27.08,15.85,37.5,13.58,9.26-2,19-3.34,29.65-6.59,51.24-15.57,124.05-36.32,176.56-38.43,29.14-1.17,53.29,4.16,73.65,19.25,25.46,18.88,34.18,45,64.47,56.58,7.48,2.85,15,6.53,22.69,4.42,9.76-2.69,31.46-1.74,58.82-8.95,63.08-16.62,74.84-49.27,149.64-81.39,25.77-11.07,61.44-16.69,110.82-3.19" transform="translate(0.19 -2.91)"/><path class="cls-1" d="M4.77,171.37c99.63,1.85,202.17,9.79,298.68,72.4,25.64,16.64,48.63,38.53,70.78,65.45,31.4,38.17,71.29,104.86,137.82,84.77,39.6-12,65.72-36.76,87.48-59.55,36.23-37.93,42.54-68.21,82.44-94.77,67.24-44.77,149.29-42.58,187.81-26.37,6.45,2.71,14.11,6,22.14,10.3,27.64,14.79,54.41,38.32,75.16,59.39,21.39,21.73,38.87,39.87,58.86,49.09,12.35,5.68,22.57,7.92,30.33,11.16,26.64,11.13,27.43,14.44,38,11.74,9.17-2.36,18.85-4,29.53-7.4,51.25-16.51,124.9-35.85,177.46-36.95,29.28-.61,53.37,5.25,73.65,20.49,25.53,19.18,34.56,45.31,65,56.47,7.58,2.78,15.23,6.32,22.82,4.05,9.92-2.95,31.39-2.57,58.87-10,62.11-16.79,74.53-48.73,148-79.79,25.71-10.87,61-16.23,109.43-3.1" transform="translate(0.19 -2.91)"/><path class="cls-1" d="M4.7,165.94C100.24,169.23,205.88,176.5,303,238.1c25.94,16.45,48.91,38.27,70.82,65.13,31.6,38.74,70.22,105.65,136.55,86.13,40.06-11.79,66.65-36.78,88.71-59.62,37.17-38.46,43-68.84,83.26-95.74,66.86-44.68,149.21-43.09,188.58-26.43,6.5,2.75,14.18,6.08,22.19,10.43,27.79,15.09,54.18,39.07,74.74,60.49,21.18,22.06,38.56,40.45,58.84,49.52,12.44,5.56,22.78,7.53,30.64,10.58,26.64,10.32,27.78,13,38.45,9.89,9.08-2.68,18.74-4.58,29.4-8.21,51.26-17.45,125.79-37.4,178.36-35.46,29.4,1.08,53.45,6.34,73.66,21.72,25.59,19.47,34.93,45.6,65.51,56.36,7.69,2.71,15.42,6.09,23,3.69,10.07-3.21,31.31-3.4,58.92-11.05,61.13-16.93,74.21-48.16,146.34-78.18,25.66-10.68,60.57-15.77,108-3" transform="translate(0.19 -2.91)"/><path class="cls-1" d="M4.62,160.51c91.46,4.73,200.21,11.33,298,71.92,26.23,16.27,49.19,38,70.86,64.81,31.8,39.32,69.15,106.44,135.28,87.49,40.52-11.62,67.57-36.8,89.95-59.69,38.11-39,43.49-69.48,84.08-96.71,66.46-44.59,149.11-43.61,189.33-26.5a241.26,241.26,0,0,1,22.25,10.57c27.94,15.39,53.95,39.83,74.33,61.59,21,22.39,38.23,41,58.8,49.95,12.55,5.44,23,7.14,31,10,26.63,9.53,28.13,11.62,38.92,8,9-3,18.64-5.19,29.28-9,51.27-18.4,126.69-36.94,179.26-34,29.52,1.66,53.52,7.43,73.67,22.95,25.66,19.78,35.3,45.9,66,56.27,7.8,2.63,15.24,4.19,23.12,3.31,10.72-1.21,31.23-4.23,59-12.1,60.15-17.07,73.91-47.58,144.69-76.57,25.61-10.48,60.13-15.31,106.66-2.9" transform="translate(0.19 -2.91)"/><path class="cls-1" d="M4.55,155.08c87.37,6.17,199.24,12.09,297.59,71.68,26.52,16.08,49.45,37.78,70.88,64.49,32,39.89,68.09,107.24,134,88.85,41-11.43,68.48-36.82,91.17-59.76,39.06-39.49,44-70.11,84.9-97.67,66.08-44.5,149-44.14,190.09-26.57a228.66,228.66,0,0,1,22.3,10.7c28.1,15.69,53.73,40.58,73.92,62.69,20.75,22.72,37.92,41.62,58.78,50.38,12.65,5.32,23.18,6.75,31.27,9.41,26.62,8.75,28.49,10.23,39.4,6.19,8.91-3.3,18.52-5.81,29.16-9.82,51.27-19.34,127.46-34.42,180.15-32.5,29.71,1.09,53.6,8.52,73.67,24.19,25.73,20.08,35.68,46.18,66.54,56.16,7.91,2.56,15.4,4,23.26,2.94,10.93-1.44,31.16-5.05,59-13.15,59.18-17.2,73.61-47,143-75,25.55-10.29,59.68-14.85,105.27-2.81" transform="translate(0.19 -2.91)"/><path class="cls-1" d="M4.48,149.65c83.28,7.62,198.26,12.84,297.22,71.44,26.81,15.88,49.73,37.53,70.92,64.17,32.2,40.47,67,108.05,132.76,90.21,41.44-11.25,69.41-36.83,92.41-59.83,40-40,44.44-70.74,85.72-98.64,65.69-44.41,148.94-44.67,190.85-26.64a223.91,223.91,0,0,1,22.35,10.84c28.25,16,53.51,41.33,73.5,63.78,20.53,23,37.6,42.21,58.75,50.83,12.75,5.19,23.39,6.36,31.59,8.82,26.6,8,28.85,8.84,39.87,4.34,8.84-3.61,18.42-6.43,29-10.63,51.28-20.29,128.31-33.93,181-31,29.85,1.65,53.67,9.6,73.68,25.41,25.79,20.38,36,46.47,67.06,56.07,8,2.48,15.55,3.75,23.4,2.56,11.12-1.68,31.08-5.86,59.07-14.19,58.21-17.33,73.31-46.42,141.39-73.35,25.51-10.09,59.25-14.39,103.89-2.71" transform="translate(0.19 -2.91)"/><path class="cls-1" d="M4.4,144.22c79.19,9.06,197.3,13.59,296.86,71.2,27.11,15.69,50,37.28,71,63.85,32.39,41.05,66,108.86,131.5,91.57,41.9-11.06,70.33-36.84,93.63-59.9,41-40.52,44.92-71.37,86.54-99.61,65.32-44.31,148.86-45.19,191.61-26.7a219.16,219.16,0,0,1,22.41,11c28.4,16.3,53.28,42.09,73.09,64.88,20.31,23.38,37.27,42.8,58.72,51.26,12.85,5.07,23.59,6,31.91,8.24,26.57,7.21,29.2,7.46,40.33,2.49,8.77-3.91,18.32-7.05,28.92-11.44,51.29-21.23,129.16-33.44,181.95-29.53,30,2.22,53.75,10.7,73.69,26.65,25.85,20.68,36.42,46.75,67.57,56,8.13,2.4,15.71,3.52,23.54,2.19,11.33-1.92,31-6.67,59.13-15.24,57.24-17.44,73-45.81,139.74-71.74,25.46-9.89,58.81-13.93,102.5-2.61" transform="translate(0.19 -2.91)"/><path class="cls-1" d="M4.33,138.78c75.1,10.51,196.33,14.35,296.49,71,27.41,15.5,50.27,37,71,63.53C404.4,314.92,436.72,383,502.05,366.2c42.36-10.86,71.26-36.85,94.87-60,41.91-41,45.39-72,87.35-100.57,64.94-44.22,148.78-45.72,192.38-26.78A213.64,213.64,0,0,1,899.1,190c28.56,16.61,53.06,42.84,72.68,66,20.1,23.71,37,43.39,58.69,51.69,13,4.95,23.79,5.6,32.23,7.65,26.54,6.47,29.58,6.09,40.81.65,8.69-4.21,18.2-7.66,28.79-12.24,51.29-22.19,130-33,182.85-28.06,30.13,2.8,53.82,11.79,73.69,27.89,25.91,21,36.81,47,68.09,55.85,8.24,2.33,15.87,3.3,23.69,1.83,11.52-2.17,30.94-7.49,59.18-16.3,56.26-17.55,72.73-45.2,138.09-70.12,25.41-9.69,58.37-13.48,101.11-2.53" transform="translate(0.19 -2.91)"/><path class="cls-1" d="M4.26,133.35c71,12,195.37,15.09,296.12,70.73,27.7,15.3,50.54,36.8,71,63.22,32.76,42.21,63.84,110.49,129,94.27,42.82-10.66,72.17-36.86,96.09-60C639.35,260,642.36,228.91,684.66,200c64.55-44.12,148.69-46.25,193.13-26.84A204.7,204.7,0,0,1,900.3,184.4c28.7,16.91,52.83,43.6,72.27,67.08,19.88,24,36.63,44,58.66,52.13,13,4.82,24,5.22,32.54,7.06,26.51,5.73,30,4.71,41.28-1.2,8.63-4.5,18.1-8.28,28.68-13.05,51.29-23.14,130.86-32.46,183.74-26.58,30.27,3.38,53.89,12.88,73.7,29.12,26,21.29,37.18,47.3,68.61,55.76,8.35,2.24,16,3.06,23.82,1.45,11.72-2.42,30.88-8.3,59.23-17.35,55.31-17.64,72.45-44.58,136.44-68.51,25.37-9.48,57.93-13,99.73-2.43" transform="translate(0.19 -2.91)"/><path class="cls-1" d="M4.18,127.92c66.93,13.4,194.41,15.83,295.77,70.49,28,15.1,50.8,36.56,71.07,62.9,32.94,42.8,62.78,111.32,127.7,95.63,43.29-10.46,73.1-36.87,97.33-60.1,43.82-42,46.35-73.25,89-102.51,64.18-44,148.62-46.77,193.9-26.91a201.51,201.51,0,0,1,22.55,11.38C930.35,196,954.1,223.15,973.35,247c19.67,24.36,36.31,44.56,58.64,52.56,13.14,4.71,24.18,4.84,32.85,6.48,26.48,5,30.33,3.34,41.76-3,8.56-4.8,18-8.9,28.55-13.86,51.3-24.09,131.71-32,184.64-25.09,30.41,4,54,14,73.71,30.35,26,21.59,37.56,47.57,69.12,55.65,8.46,2.17,16.17,2.83,24,1.08,11.91-2.67,30.8-9.1,59.28-18.39,54.34-17.74,72.17-44,134.79-66.91,25.32-9.28,57.49-12.55,98.34-2.33" transform="translate(0.19 -2.91)"/><path class="cls-1" d="M4.11,122.49c62.84,14.84,193.45,16.56,295.4,70.25,28.29,14.9,51.06,36.32,71.11,62.58,33.12,43.39,61.72,112.16,126.43,97,43.75-10.25,74-36.88,98.56-60.17,44.79-42.54,46.83-73.88,89.82-103.47,63.79-43.93,148.53-47.31,194.65-27a196,196,0,0,1,22.61,11.51c29,17.53,52.39,45.1,71.44,69.28,19.46,24.68,36,45.16,58.61,53,13.24,4.59,24.38,4.48,33.17,5.9,26.45,4.27,30.72,2,42.23-4.9,8.51-5.09,17.88-9.52,28.43-14.67,51.3-25,132.56-31.46,185.54-23.61,30.55,4.53,54,15.07,73.72,31.58,26.08,21.91,37.94,47.84,69.63,55.55,8.57,2.09,16.32,2.6,24.12.71,12.1-2.93,30.73-9.9,59.33-19.44,53.38-17.82,71.9-43.33,133.13-65.29,25.28-9.07,57.06-12.1,97-2.24" transform="translate(0.19 -2.91)"/><path class="cls-1" d="M4,117.06c58.75,16.28,192.49,17.29,295,70,28.59,14.7,51.33,36.08,71.15,62.26,33.3,44,60.66,113,125.17,98.35,44.21-10,75-36.88,99.78-60.24,45.75-43,47.32-74.51,90.64-104.44,63.42-43.82,148.45-47.83,195.41-27.05a190.11,190.11,0,0,1,22.67,11.65c29.15,17.85,52.16,45.86,71,70.38,19.24,25,35.67,45.75,58.58,53.43,13.34,4.47,24.58,4.1,33.48,5.3,26.42,3.57,31.12.62,42.7-6.74,8.46-5.38,17.78-10.15,28.31-15.48,51.31-26,133.41-31,186.43-22.13,30.7,5.11,54.12,16.16,73.73,32.82,26.15,22.21,38.32,48.1,70.16,55.45,8.68,2,16.47,2.36,24.25.34,12.29-3.2,30.67-10.7,59.38-20.5,52.43-17.89,71.64-42.68,131.49-63.68,25.24-8.86,56.62-11.64,95.57-2.14" transform="translate(0.19 -2.91)"/><path class="cls-1" d="M4,111.63c54.67,17.72,191.54,18,294.67,69.77,28.89,14.5,51.59,35.84,71.19,61.94,33.47,44.58,59.6,113.85,123.9,99.71,44.68-9.82,75.89-36.89,101-60.31,46.71-43.53,47.79-75.13,91.46-105.41,63-43.71,148.36-48.36,196.17-27.11A185.69,185.69,0,0,1,905.08,162c29.3,18.16,51.94,46.61,70.62,71.48,19,25.34,35.35,46.34,58.55,53.86,13.44,4.35,24.78,3.74,33.81,4.72,26.38,2.86,31.51-.73,43.17-8.6a299.76,299.76,0,0,1,28.18-16.28c51.31-27,134.26-30.44,187.33-20.64,30.84,5.69,54.19,17.25,73.74,34,26.2,22.51,38.7,48.36,70.67,55.34,8.79,1.92,16.62,2.13,24.4,0,12.47-3.46,30.6-11.49,59.43-21.55,51.47-18,71.37-42,129.84-62.07,25.19-8.64,56.18-11.17,94.18-2" transform="translate(0.19 -2.91)"/><path class="cls-1" d="M3.89,106.2c50.58,19.17,190.58,18.73,294.31,69.53,29.18,14.3,51.84,35.6,71.22,61.62C403.06,282.53,428,352.06,492.06,338.42c45.14-9.6,76.81-36.89,102.24-60.38,47.68-44,48.28-75.75,92.28-106.37,62.67-43.62,148.29-48.9,196.93-27.19a181.12,181.12,0,0,1,22.77,11.92C935.72,174.87,958,203.76,976.49,229c18.81,25.66,35,46.94,58.52,54.29,13.53,4.24,25,3.38,34.12,4.14,26.36,2.17,31.91-2.09,43.64-10.45a271.93,271.93,0,0,1,28.07-17.09c51.31-27.9,135.1-29.93,188.22-19.16,31,6.28,54.26,18.35,73.75,35.28,26.26,22.83,39.07,48.62,71.18,55.24,8.9,1.84,16.77,1.89,24.54-.4,12.66-3.73,30.54-12.28,59.49-22.59,50.52-18,71.1-41.36,128.18-60.47,25.16-8.42,55.74-10.71,92.8-2" transform="translate(0.19 -2.91)"/><path class="cls-1" d="M3.82,100.76c46.48,20.62,189.63,19.45,293.94,69.3,29.48,14.1,52.1,35.37,71.26,61.3,33.81,45.78,57.49,115.57,121.37,102.43,45.62-9.38,77.75-36.9,103.48-60.45C642.51,228.82,642.63,197,687,166c62.3-43.51,148.21-49.43,197.7-27.25a177.74,177.74,0,0,1,22.81,12.05c29.59,18.79,51.5,48.11,69.8,73.68,18.6,26,34.7,47.54,58.49,54.72,13.64,4.12,25.38,1.57,34.44,3.55,25.77,5.64,32.33-3.44,44.12-12.29a250.91,250.91,0,0,1,27.94-17.9c51.31-28.85,135.94-29.41,189.12-17.68,31.11,6.87,54.33,19.45,73.75,36.52,26.32,23.13,39.46,48.87,71.71,55.14,9,1.75,16.91,1.64,24.68-.78,12.84-4,30.47-13.06,59.53-23.64,49.58-18.06,70.85-40.69,126.54-58.85,25.12-8.2,55.3-10.26,91.41-1.86" transform="translate(0.19 -2.91)"/><path class="cls-1" d="M3.74,95.33c42.4,22.06,188.69,20.16,293.58,69.06,29.79,13.89,52.36,35.13,71.29,61,34,46.38,56.45,116.43,120.12,103.79,46.08-9.15,78.67-36.9,104.7-60.52,49.61-45,49.25-77,93.92-108.31,61.92-43.4,148.12-50,198.45-27.32a174.13,174.13,0,0,1,22.87,12.19C938.4,164.31,960,194.07,978.05,220c18.39,26.31,34.38,48.13,58.47,55.16,13.73,4,25.53,1.24,34.75,3,25.88,4.82,32.74-4.79,44.59-14.14a235.23,235.23,0,0,1,27.82-18.71c51.31-29.81,136.79-28.89,190-16.19,31.25,7.45,54.4,20.53,73.76,37.74,26.37,23.45,39.84,49.13,72.22,55,9.12,1.66,17,1.41,24.83-1.15,13-4.28,30.41-13.83,59.58-24.69,48.63-18.1,70.6-40,124.89-57.24,25.08-8,54.86-9.8,90-1.76" transform="translate(0.19 -2.91)"/><path class="cls-1" d="M3.67,89.9C42,113.4,191.4,110.76,296.88,158.72c30.09,13.68,52.61,34.9,71.33,60.66,34.14,47,55.39,117.3,118.85,105.15,46.55-8.92,79.6-36.9,105.94-60.59,50.58-45.5,49.73-77.61,94.73-109.27,61.55-43.3,148-50.5,199.21-27.39a169.42,169.42,0,0,1,22.93,12.32c29.87,19.42,51,49.62,69,75.88,18.17,26.64,34,48.73,58.44,55.59,13.82,3.89,25.68.94,35.06,2.38,26,4,33.16-6.14,45.06-16a223.34,223.34,0,0,1,27.7-19.52c51.31-30.77,137.63-28.37,190.92-14.71,31.38,8,54.47,21.63,73.77,39,26.42,23.75,40.21,49.38,72.73,54.93,9.23,1.58,17.2,1.17,25-1.51,13.2-4.56,30.36-14.61,59.64-25.75,47.68-18.14,70.34-39.3,123.23-55.63,25.05-7.73,54.43-9.33,88.64-1.66" transform="translate(0.19 -2.91)"/><path class="cls-1" d="M3.6,84.47c34.22,25,186.78,21.56,292.84,68.58,30.39,13.48,52.87,34.66,71.37,60.34C402.1,261,422.14,331.57,485.39,319.9c47-8.68,80.54-36.91,107.17-60.66,51.55-46,50.22-78.23,95.56-110.24,61.17-43.19,148-51,200-27.46a167,167,0,0,1,23,12.46c30,19.74,50.84,50.37,68.56,77,18,27,33.73,49.34,58.41,56,13.93,3.78,25.85.64,35.38,1.79C1099.51,272,1107,261.31,1119,251a209.79,209.79,0,0,1,27.58-20.32c51.3-31.73,138.46-27.86,191.81-13.24,31.51,8.64,54.54,22.73,73.77,40.22,26.49,24.06,40.6,49.62,73.26,54.83,9.34,1.49,17.33.92,25.11-1.89,13.37-4.84,30.3-15.37,59.68-26.8,46.75-18.17,70.1-38.59,121.59-54,25-7.5,54-8.88,87.25-1.57" transform="translate(0.19 -2.91)"/><path class="cls-1" d="M3.52,79C33.66,105.43,189.36,101.29,296,147.38c30.68,13.27,53.11,34.43,71.4,60,34.44,48.19,53.28,119,116.32,107.86,47.49-8.43,81.46-36.91,108.4-60.73,52.52-46.46,50.7-78.85,96.37-111.21,60.8-43.07,147.89-51.56,200.73-27.52a163.83,163.83,0,0,1,23,12.59c30.15,20.06,50.61,51.12,68.15,78.08,17.75,27.28,33.41,49.94,58.38,56.46,14,3.66,26,.35,35.69,1.2,26.2,2.31,34-8.84,46-19.68A202.88,202.88,0,0,1,1148,223.33c51.3-32.69,139.29-27.33,192.71-11.75,31.65,9.23,54.6,23.82,73.78,41.44,26.53,24.38,41,49.87,73.77,54.73,9.45,1.4,17.48.68,25.25-2.26,13.55-5.12,30.25-16.13,59.74-27.84,45.81-18.2,69.86-37.88,119.93-52.41,25-7.25,53.55-8.42,85.87-1.48" transform="translate(0.19 -2.91)"/><path class="cls-1" d="M3.45,73.61c26.05,27.83,184.89,22.94,292.12,68.1,31,13,53.36,34.2,71.44,59.71,34.59,48.8,52.22,119.93,115.05,109.22,48-8.18,82.4-36.91,109.63-60.8,53.5-46.94,51.19-79.46,97.19-112.17,60.44-43,147.81-52.1,201.5-27.6a160.57,160.57,0,0,1,23.07,12.73c30.3,20.39,50.4,51.87,67.74,79.18,17.54,27.61,33.09,50.54,58.35,56.89,14.12,3.55,26.19,1.3,36,.62C1101.82,257.68,1110,249.3,1122,238A196,196,0,0,1,1149.37,216c51.3-33.65,140.13-26.8,193.61-10.27a185.14,185.14,0,0,1,73.79,42.68c26.58,24.69,41.34,50.11,74.28,54.62,9.56,1.32,17.62.44,25.4-2.63,13.71-5.41,30.2-16.88,59.79-28.89,44.88-18.21,69.61-37.14,118.28-50.8,25-7,53.11-8,84.48-1.38" transform="translate(0.19 -2.91)"/><path class="cls-1" d="M3.38,68.18C25.34,97.45,187.32,91.8,295.13,136c31.29,12.84,53.62,34,71.48,59.39C401.34,244.84,417.78,316.25,480.4,306c48.42-7.93,83.33-36.91,110.85-60.87,54.48-47.42,51.68-80.08,98-113.14C749.33,89.15,837,79.37,891.52,104.34a156.61,156.61,0,0,1,23.13,12.86c30.43,20.71,50.17,52.63,67.32,80.28,17.33,27.93,32.77,51.15,58.33,57.32,14.22,3.44,26.4,1,36.33,0,26.27-2.46,34.89-11.54,46.95-23.39a190.84,190.84,0,0,1,27.21-22.74c51.29-34.61,141-26.27,194.51-8.79,31.9,10.42,54.74,26,73.79,43.91,26.64,25,41.73,50.35,74.81,54.53,9.67,1.22,17.75.19,25.53-3,13.89-5.69,30.16-17.63,59.85-29.94,44-18.22,69.37-36.4,116.63-49.19,24.93-6.74,52.67-7.49,83.09-1.28" transform="translate(0.19 -2.91)"/><path class="cls-1" d="M3.3,62.75c17.87,30.72,183,24.3,291.39,67.62,31.59,12.63,53.86,33.74,71.52,59.07,34.87,50,50.11,121.72,112.52,111.94,48.89-7.67,84.26-36.9,112.09-60.94,55.45-47.9,52.16-80.69,98.83-114.11,59.7-42.74,147.65-53.17,203-27.73a154.71,154.71,0,0,1,23.18,13c30.57,21,49.95,53.38,66.91,81.37,17.12,28.27,32.44,51.76,58.29,57.77,14.32,3.32,26.61.62,36.65-.56C1104,247.1,1113,237.3,1125.13,225c8.11-8.28,16.68-16.34,27.09-23.55,51.28-35.57,141.78-25.74,195.4-7.3,32,11,54.8,27.11,73.8,45.14,26.69,25.32,42.1,50.59,75.32,54.42,9.78,1.13,17.89-.05,25.68-3.37,14-6,30.12-18.38,59.89-31,43-18.23,69.14-35.64,115-47.57,24.91-6.48,52.24-7,81.71-1.19" transform="translate(0.19 -2.91)"/><path class="cls-1" d="M3.23,57.31c13.78,32.17,182.05,25,291,67.39,31.9,12.41,54.11,33.51,71.56,58.75,35,50.65,49.05,122.62,111.26,113.29,49.36-7.39,85.19-36.89,113.31-61C646.81,187.37,643,154.43,690,120.67,749.37,78,837.61,67,893.81,92.87A151.34,151.34,0,0,1,917,106c30.71,21.36,49.74,54.13,66.5,82.47,16.91,28.59,32.12,52.37,58.27,58.2,14.42,3.21,26.82.29,37-1.14,26.3-3.72,35.78-14.23,47.9-27.08,8.1-8.58,16.58-17,27-24.36,51.28-36.52,142.61-25.21,196.3-5.82,32.16,11.61,54.87,28.22,73.81,46.38,26.73,25.63,42.47,50.82,75.83,54.31,9.89,1,18-.29,25.83-3.74,14.2-6.29,30.07-19.11,59.94-32,42.11-18.24,68.91-34.89,113.33-46,24.88-6.21,51.79-6.58,80.32-1.09" transform="translate(0.19 -2.91)"/><path class="cls-1" d="M3.16,51.88C12.85,85.49,184.26,77.54,293.82,119c32.19,12.19,54.35,33.28,71.59,58.43,35.14,51.27,48,123.52,110,114.65C525.23,285,561.53,255.22,590,231c57.41-48.85,53.14-81.92,100.47-116,59-42.51,147.49-54.25,204.53-27.87a149.65,149.65,0,0,1,23.29,13.27c30.84,21.68,49.52,54.88,66.09,83.57,16.69,28.92,31.79,53,58.24,58.63,14.51,3.11,27,0,37.27-1.72,26.32-4.35,36.23-15.59,48.37-28.93,8.08-8.88,16.47-17.58,26.85-25.17,51.27-37.48,143.44-24.68,197.2-4.34,32.28,12.22,54.93,29.32,73.82,47.61,26.78,25.95,42.84,51.06,76.34,54.22a48.75,48.75,0,0,0,26-4.12c14.37-6.58,30-19.84,60-33.09,41.19-18.23,68.67-34.11,111.67-44.36,24.87-5.92,51.36-6.12,78.94-1" transform="translate(0.19 -2.91)"/><path class="cls-1" d="M3.09,46.45c5.6,35.05,180.15,26.33,290.29,66.91,32.49,12,54.59,33.05,71.63,58.11,35.26,51.89,46.93,124.43,108.72,116,50.3-6.84,87.06-36.89,115.78-61.14,58.39-49.32,53.64-82.53,101.3-117C749.4,66.94,838.22,54.55,896.1,81.4a146.62,146.62,0,0,1,23.34,13.4c31,22,49.35,55.6,65.67,84.67,16.54,29.21,31.47,53.59,58.21,59.07,14.61,3,27.25-.37,37.59-2.32,26.35-5,36.68-16.93,48.85-30.77,8.06-9.17,16.36-18.2,26.72-26,51.27-38.44,144.26-24.14,198.1-2.86,32.41,12.82,55,30.42,73.82,48.85,26.83,26.26,43.22,51.28,76.87,54.11a48.77,48.77,0,0,0,26.11-4.49c14.52-6.87,30-20.55,60-34.14,40.29-18.22,68.44-33.31,110-42.74,24.84-5.64,50.92-5.67,77.55-.91" transform="translate(0.19 -2.91)"/><path class="cls-1" d="M3,41c1.52,36.5,179.21,27,289.93,66.67,32.8,11.75,54.84,32.82,71.67,57.79C400,218,410.48,290.82,472.07,282.85c50.77-6.56,88-36.88,117-61.21,59.37-49.79,54.13-83.13,102.11-118,58.23-42.28,147.34-55.33,206-28A144.41,144.41,0,0,1,920.63,89.2c31.11,22.34,49.13,56.36,65.26,85.77,16.33,29.54,31.16,54.2,58.19,59.5,14.71,2.88,27.47-.69,37.91-2.9,26.38-5.59,37.13-18.29,49.31-32.62,8-9.48,16.25-18.82,26.61-26.79,51.25-39.4,145.07-23.6,199-1.37,32.54,13.41,55.07,31.51,73.84,50.07,26.88,26.59,43.59,51.52,77.38,54a49,49,0,0,0,26.25-4.86c14.68-7.18,30-21.27,60.1-35.2,39.38-18.2,68.21-32.51,108.38-41.13,24.82-5.33,50.48-5.2,76.16-.81" transform="translate(0.19 -2.91)"/><path class="cls-1" d="M2.94,35.59C.37,73.53,181.2,63.24,292.5,102c33.1,11.53,55.08,32.59,71.7,57.47C399.71,212.63,409,285.74,470.4,278.22c51.24-6.28,88.93-36.88,118.24-61.28C649,166.69,643.27,133.2,691.57,98c57.87-42.16,147.31-56,206.82-28.07A141.32,141.32,0,0,1,921.83,83.6c31.24,22.67,48.9,57.11,64.85,86.87,16.11,29.87,30.83,54.81,58.15,59.93,14.81,2.78,27.7-1,38.23-3.48,26.43-6.22,37.59-19.64,49.79-34.47,8-9.78,16.13-19.45,26.48-27.6,51.24-40.37,145.89-23.06,199.88.11,32.66,14,55.13,32.62,73.85,51.31,26.92,26.9,44,51.74,77.89,53.91a49.1,49.1,0,0,0,26.4-5.23c14.83-7.48,30-22,60.15-36.24,38.47-18.19,68-31.7,106.72-39.53,24.81-5,50-4.74,74.78-.71" transform="translate(0.19 -2.91)"/><path class="cls-1" d="M2.87,30.16c-6.66,39.38,177.31,28.3,289.19,66.19,33.4,11.31,55.32,32.37,71.74,57.15,35.62,53.77,43.76,127.17,104.94,120.09,51.7-6,89.86-36.87,119.47-61.35C649.54,161.52,643.32,127.89,692,92.33c57.5-42,147.22-56.49,207.57-28.14A138.6,138.6,0,0,1,923,78c31.37,23,48.68,57.87,64.44,88s30.51,55.43,58.13,60.36c14.91,2.67,27.92-1.32,38.54-4.07,26.48-6.83,38-21,50.26-36.31,8-10.08,16-20.09,26.36-28.4,51.16-41.42,146.71-22.54,200.78,1.58,32.78,14.62,55.2,33.72,73.85,52.55,27,27.21,44.33,52,78.42,53.8a49.16,49.16,0,0,0,26.54-5.6c15-7.78,30-22.67,60.19-37.29,37.58-18.17,67.74-30.87,105.08-37.91,24.78-4.68,49.6-4.29,73.39-.62" transform="translate(0.19 -2.91)"/><path class="cls-1" d="M2.79,24.73c-10.74,40.82,176.37,29,288.84,66,33.7,11.09,55.55,32.14,71.77,56.83,35.73,54.41,42.69,128.1,103.67,121.45,52.17-5.68,90.79-36.86,120.7-61.42,62.32-51.18,55.62-84.95,104.57-120.87,57.14-41.93,147.14-57,208.34-28.21A136.43,136.43,0,0,1,924.22,72.4c31.5,23.33,48.46,58.62,64,89.07s30.18,56,58.09,60.8c15,2.56,28.15-1.65,38.86-4.66,26.54-7.45,38.51-22.35,50.73-38.16,8-10.39,15.91-20.71,26.24-29.21,51.16-42.37,147.52-22,201.68,3.07,32.9,15.22,55.26,34.81,73.86,53.77,27,27.54,44.69,52.19,78.93,53.71a49.37,49.37,0,0,0,26.68-6c15.13-8.08,30-23.35,60.25-38.34,36.69-18.14,67.5-30,103.43-36.3,24.76-4.33,49.16-3.83,72-.52" transform="translate(0.19 -2.91)"/><path class="cls-1" d="M2.72,19.29C-12.12,61.57,178.13,48.9,291.19,85c34,10.86,55.79,31.91,71.81,56.52,35.84,55,41.63,129,102.41,122.8C518,259,557.13,227.47,587.33,202.84,650.64,151.2,643.51,117.37,692.73,81c56.84-41.71,147-57.54,209.09-28.28a135,135,0,0,1,23.6,14.08C957,90.46,973.65,126.18,989,157s29.87,56.66,58.07,61.23c15.11,2.45,28.38-2,39.17-5.24,26.61-8.07,39-23.71,51.21-40,8-10.68,15.79-21.31,26.11-30,51.17-43.31,148.34-21.46,202.58,4.55,33,15.83,55.32,35.92,73.87,55,27,27.85,45.06,52.41,79.44,53.6a49.44,49.44,0,0,0,26.83-6.35c15.27-8.38,29.94-24,60.3-39.39,35.8-18.11,67.26-29.17,101.77-34.69a242.6,242.6,0,0,1,70.62-.42" transform="translate(0.19 -2.91)"/><path class="cls-1" d="M2.65,13.86c-18.93,43.72,174.53,30,288.1,65.48,34.32,10.57,56,31.69,71.85,56.2,35.93,55.67,40.56,129.94,101.14,124.16,53.1-5.07,92.7-36.8,123.16-61.56,64.38-52,56.65-86.1,106.21-122.81C749.57,33.71,840.08,17.27,903,47A134.14,134.14,0,0,1,926.61,61.2c31.71,24.06,48,60.14,63.2,91.27s29.55,57.27,58,61.66c15.21,2.35,28.61-2.28,39.49-5.82,26.68-8.69,39.44-25.07,51.68-41.87,8-11,15.69-21.93,26-30.82,51.16-44.25,149.14-20.91,203.47,6,33.13,16.43,55.36,37,73.87,56.24,27.07,28.21,45.43,52.63,80,53.5a49.67,49.67,0,0,0,27-6.71c15.42-8.69,30-24.7,60.35-40.44,34.93-18.09,67-28.31,100.13-33.09a262.1,262.1,0,0,1,69.23-.33" transform="translate(0.19 -2.91)"/><path class="cls-1" d="M2.57,8.43c-23,45.16,173.55,30.78,287.74,65.24,34.62,10.37,56.23,31.48,71.89,55.88,35.94,56.37,39.49,130.88,99.87,125.52,53.57-4.76,93.62-36.82,124.39-61.63,65.32-52.5,57.13-86.73,107-123.77,56.07-41.53,146.88-58.59,210.61-28.42a132.41,132.41,0,0,1,23.7,14.35C959.67,80,975.59,116.49,990.6,148s29.22,57.92,58,62.1c15.31,2.25,28.84-2.61,39.81-6.42,26.75-9.3,39.89-26.43,52.15-43.71,8-11.3,15.58-22.55,25.87-31.63,51.16-45.2,149.92-20.32,204.37,7.52,33.23,17.07,55.43,38.13,73.88,57.47,27.12,28.51,45.79,52.78,80.48,53.4a50,50,0,0,0,27.11-7.09c15.56-9,30-25.36,60.4-41.49a283.74,283.74,0,0,1,98.47-31.47,286.88,286.88,0,0,1,67.85-.24" transform="translate(0.19 -2.91)"/><path class="cls-1" d="M2.5,3C-24.6,49.6,175.06,34.53,289.87,68c116.63,34,84.64,189.49,170.54,182.44,54-4.43,94.53-36.83,125.62-61.7,66.26-53,57.61-87.36,107.85-124.74C756.83,17.16,865,.69,929,50s62.22,148,120.37,156c15.4,2.13,29.08-2.92,40.12-7,44.37-16.39,52.36-54.54,78.37-78,51.17-46.14,150.75-19.83,205.27,9,82.68,43.72,96.47,111.62,154.88,112,32.62.21,41.8-25.08,87.71-50,60.2-32.67,120.84-34.11,163.28-30" transform="translate(0.19 -2.91)"/></svg>