<svg id="Layer_1" data-name="Layer 1" xmlns="http://www.w3.org/2000/svg" viewBox="0 0 350 350.48"><defs><style>.cls-1{font-size:62.36px;font-family:Poppins-Light, Poppins;font-weight:300;}.cls-1,.cls-3{fill:#4c4c4c;}.cls-2{fill:#318cd3;}.cls-4{fill:#828282;}.cls-5{fill:#70bde8;}</style></defs><title>logo</title><text class="cls-1" transform="translate(0 315.31)">Isabel Trică</text><path class="cls-2" d="M159,181.65c14.71,13,14.71,37.17,0,50.2L144.13,245l-83-73.6c-14.71-13-14.71-37.17,0-50.21l14.83-13.14Z" transform="translate(5 0)"/><path class="cls-3" d="M181,63.35c-14.71-13-14.71-37.17,0-50.2L195.87,0l83,73.6c14.71,13,14.71,37.17,0,50.21L264.08,137Z" transform="translate(5 0)"/><path class="cls-4" d="M181,134.89c-14.71,13-14.71,37.17,0,50.21l14.84,13.15,83-73.6c14.71-13,14.71-37.18,0-50.21L264.08,61.29Z" transform="translate(5 0)"/><path class="cls-5" d="M159,110.11c14.71-13,14.71-37.17,0-50.21L144.13,46.75l-83,73.6c-14.71,13-14.71,37.18,0,50.21l14.83,13.15Z" transform="translate(5 0)"/></svg>