<svg id="template" xmlns="http://www.w3.org/2000/svg" xmlns:xlink="http://www.w3.org/1999/xlink" viewBox="0 0 736.93 981"><defs><style>.cls-1{fill:none;}.cls-2{clip-path:url(#clip-path);}.cls-3{fill:#10103d;}.cls-4{fill:#121f4e;}.cls-5{fill:#152e60;}.cls-6{fill:#173d71;}.cls-7{fill:#1a4c82;}.cls-8{fill:#1c5b93;}.cls-9{fill:#1e69a5;}.cls-10{fill:#2178b6;}.cls-11{fill:#2387c7;}.cls-12{fill:#2696d9;}.cls-13{fill:#28a5ea;}</style><clipPath id="clip-path" transform="translate(0 324.55)"><rect class="cls-1" width="736.93" height="197.13"/></clipPath></defs><title>waves</title><g class="cls-2"><path class="cls-3" d="M0,644.54v11.91H49.88A214.14,214.14,0,0,0,0,644.54Z" transform="translate(0 324.55)"/><path class="cls-4" d="M178.79,656.45c-3.57-19.87-9.62-38.87-21.19-56.07C125.51,552.65,61.43,535.85,0,538V644.54a214.14,214.14,0,0,1,49.88,11.91Z" transform="translate(0 324.55)"/><path class="cls-5" d="M157.6,600.38c11.57,17.2,17.62,36.2,21.19,56.07H233.7C223,602,232.08,542.18,200.75,495.59,162.78,439.12,80,426,9.86,436.2c-3.3.48-6.58,1-9.86,1.57V538C61.43,535.85,125.51,552.65,157.6,600.38Z" transform="translate(0 324.55)"/><path class="cls-6" d="M200.75,495.59C232.08,542.18,223,602,233.7,656.45H338.78c-27.25-24.12-48-54.15-57.91-88.12-17.05-58.67-2.41-126.13-37-177.52-38-56.47-120.72-69.64-190.89-59.39C35.17,334,17.54,337.76,0,342v95.82c3.28-.56,6.56-1.09,9.86-1.57C80,426,162.78,439.12,200.75,495.59Z" transform="translate(0 324.55)"/><path class="cls-7" d="M53,331.42c70.17-10.25,152.92,2.92,190.89,59.39,34.56,51.39,19.92,118.85,37,177.52,9.87,34,30.66,64,57.91,88.12H736.93V580.77c-13.58,5.43-27.37,10.4-41.4,14.8-70.38,22.06-148,29.11-218.72,8.17S343.59,530.89,324,463.55c-17-58.67-2.41-126.13-37-177.52-38-56.47-120.73-69.64-190.9-59.39C63.65,231.38,31.84,239.89,0,248V342C17.54,337.76,35.17,334,53,331.42Z" transform="translate(0 324.55)"/><path class="cls-8" d="M96.16,226.64c70.17-10.25,152.92,2.92,190.9,59.39,34.55,51.39,19.91,118.85,37,177.52,19.57,67.34,82,119.24,152.79,140.19s148.34,13.89,218.72-8.17c14-4.4,27.82-9.37,41.4-14.8V491.32C667,513,590.13,519.73,520,499,449.2,478,386.74,426.11,367.17,358.76c-17.05-58.66-2.41-126.12-37-177.51-38-56.47-120.73-69.64-190.9-59.39C92.14,128.74,46.43,143.54,0,153.69V248C31.84,239.89,63.65,231.38,96.16,226.64Z" transform="translate(0 324.55)"/><path class="cls-9" d="M139.31,121.86c70.17-10.25,152.93,2.92,190.9,59.39,34.55,51.39,19.91,118.85,37,177.51C386.74,426.11,449.2,478,520,499c70.17,20.78,147.06,14,217-7.63V397.73c-57.58,12-117.83,13-173.82-3.56C492.35,373.23,429.9,321.33,410.32,254c-17-58.66-2.4-126.12-37-177.51C335.39,20,252.63,6.83,182.47,17.07,120.77,26.08,61.58,48.62,0,56.6v97.09C46.43,143.54,92.14,128.74,139.31,121.86Z" transform="translate(0 324.55)"/><path class="cls-10" d="M182.47,17.07C252.63,6.83,335.39,20,373.36,76.47c34.56,51.39,19.92,118.85,37,177.51,19.58,67.35,82,119.25,152.79,140.19,56,16.58,116.24,15.61,173.82,3.56v-98c-44,4.63-88.54,2.09-130.66-10.38C535.5,268.45,473.05,216.55,453.48,149.2c-17.05-58.66-2.41-126.12-37-177.51-38-56.48-120.72-69.64-190.89-59.4s-137.11,38-208,41.92c-5.88.33-11.76.46-17.63.43v102C61.58,48.62,120.77,26.08,182.47,17.07Z" transform="translate(0 324.55)"/><path class="cls-11" d="M17.63-45.79c70.88-3.92,137.82-31.67,208-41.92s152.92,2.92,190.89,59.4c34.56,51.39,19.92,118.85,37,177.51,19.57,67.35,82,119.25,152.79,140.19,42.12,12.47,86.66,15,130.66,10.38V197.13a316.47,316.47,0,0,1-87.51-12.52c-70.76-21-133.22-72.84-152.79-140.19-17.05-58.66-2.41-126.12-37-177.51-38-56.48-120.73-69.64-190.9-59.4s-137.11,38-208,41.92a296.84,296.84,0,0,1-60.78-3V-45.36C5.87-45.33,11.75-45.46,17.63-45.79Z" transform="translate(0 324.55)"/><path class="cls-12" d="M60.78-150.57c70.88-3.92,137.82-31.67,208-41.92s152.92,2.92,190.9,59.4c34.55,51.39,19.91,118.85,37,177.51,19.57,67.35,82,119.24,152.79,140.19a316.47,316.47,0,0,0,87.51,12.52V89.29a299.32,299.32,0,0,1-44.36-9.46C621.81,58.88,559.35,7,539.78-60.36c-17-58.66-2.41-126.13-37-177.51-38-56.48-120.73-69.64-190.9-59.4s-137.1,38-208,41.92A303.65,303.65,0,0,1,0-268v114.51A296.84,296.84,0,0,0,60.78-150.57Z" transform="translate(0 324.55)"/><path class="cls-13" d="M103.93-255.35c70.89-3.92,137.83-31.67,208-41.92s152.92,2.92,190.9,59.4c34.55,51.38,19.91,118.85,37,177.51C559.35,7,621.81,58.88,692.57,79.83a299.32,299.32,0,0,0,44.36,9.46V-324.55H0V-268A303.65,303.65,0,0,0,103.93-255.35Z" transform="translate(0 324.55)"/></g></svg>